<?xml version="1.0" encoding="UTF-8"?>
<!DOCTYPE svg PUBLIC "-//W3C//DTD SVG 1.1//EN" "http://www.w3.org/Graphics/SVG/1.1/DTD/svg11.dtd">
<svg xmlns="http://www.w3.org/2000/svg" version="1.1" width="1787px" height="272px" style="shape-rendering:geometricPrecision; text-rendering:geometricPrecision; image-rendering:optimizeQuality; fill-rule:evenodd; clip-rule:evenodd" xmlns:xlink="http://www.w3.org/1999/xlink">
<g><path style="opacity:1" fill="#fffdfd" d="M -0.5,-0.5 C 595.167,-0.5 1190.83,-0.5 1786.5,-0.5C 1786.5,90.1667 1786.5,180.833 1786.5,271.5C 1190.83,271.5 595.167,271.5 -0.5,271.5C -0.5,180.833 -0.5,90.1667 -0.5,-0.5 Z"/></g>
<g><path style="opacity:1" fill="#ff9190" d="M 1445.5,48.5 C 1438.47,48.3769 1431.47,48.7103 1424.5,49.5C 1428.39,47.9926 1432.56,47.3259 1437,47.5C 1440.02,47.5022 1442.85,47.8356 1445.5,48.5 Z"/></g>
<g><path style="opacity:1" fill="#ff5156" d="M 1445.5,48.5 C 1452.6,49.384 1458.6,52.384 1463.5,57.5C 1464.36,55.2287 1464.36,52.8954 1463.5,50.5C 1471.5,50.5 1479.5,50.5 1487.5,50.5C 1487.5,65.1667 1487.5,79.8333 1487.5,94.5C 1479.5,94.5 1471.5,94.5 1463.5,94.5C 1464.45,79.1106 1457.11,71.4439 1441.5,71.5C 1425.09,70.7342 1417.93,78.4008 1420,94.5C 1422.59,98.5136 1425.76,102.014 1429.5,105C 1442.8,111.317 1456.14,117.65 1469.5,124C 1490.43,136.433 1496.93,154.266 1489,177.5C 1479.65,195.268 1464.82,203.934 1444.5,203.5C 1431.34,204.385 1420,200.385 1410.5,191.5C 1410.02,194.74 1410.02,198.073 1410.5,201.5C 1402.5,201.5 1394.5,201.5 1386.5,201.5C 1386.5,185.833 1386.5,170.167 1386.5,154.5C 1394.17,154.5 1401.83,154.5 1409.5,154.5C 1409.23,156.099 1409.57,157.432 1410.5,158.5C 1412.7,169.53 1419.36,176.03 1430.5,178C 1442.69,180.93 1453.19,178.097 1462,169.5C 1466.24,161.068 1465.08,153.568 1458.5,147C 1448.16,140.663 1437.16,135.663 1425.5,132C 1411.84,126.675 1401.68,117.508 1395,104.5C 1388.26,81.1675 1395.42,63.6675 1416.5,52C 1419.1,50.8644 1421.76,50.031 1424.5,49.5C 1431.47,48.7103 1438.47,48.3769 1445.5,48.5 Z"/></g>
<g><path style="opacity:1" fill="#ff5155" d="M 234.5,102.5 C 234.41,105.152 235.076,107.485 236.5,109.5C 241.925,142.424 231.258,168.591 204.5,188C 194.98,193.897 184.647,197.73 173.5,199.5C 144.192,200.468 114.858,200.801 85.5,200.5C 84.5076,192.684 84.1743,184.684 84.5,176.5C 90.1667,176.5 95.8333,176.5 101.5,176.5C 101.667,142.832 101.5,109.165 101,75.5C 95.5934,74.5268 90.0934,74.1934 84.5,74.5C 84.5,66.5 84.5,58.5 84.5,50.5C 112.835,50.3334 141.169,50.5 169.5,51C 195.489,54.0606 215.323,66.5606 229,88.5C 231.684,92.8625 233.517,97.5292 234.5,102.5 Z"/></g>
<g><path style="opacity:1" fill="#ff5157" d="M 335.5,74.5 C 329.833,74.5 324.167,74.5 318.5,74.5C 318.169,98.3392 318.502,122.006 319.5,145.5C 319.591,159.861 325.924,170.361 338.5,177C 347.104,178.542 355.77,178.876 364.5,178C 375.982,175.848 383.815,169.348 388,158.5C 388.788,154.427 389.788,150.427 391,146.5C 391.667,122.833 391.667,99.1667 391,75.5C 385.593,74.5268 380.093,74.1934 374.5,74.5C 374.5,66.5 374.5,58.5 374.5,50.5C 394.5,50.5 414.5,50.5 434.5,50.5C 434.5,58.5 434.5,66.5 434.5,74.5C 428.833,74.5 423.167,74.5 417.5,74.5C 417.831,100.005 417.498,125.339 416.5,150.5C 415.518,154.316 414.851,158.316 414.5,162.5C 407.145,186.676 390.811,200.176 365.5,203C 347.998,205.898 331.665,202.898 316.5,194C 303.804,185.12 296.304,172.954 294,157.5C 292.729,130.198 292.062,102.864 292,75.5C 286.593,74.5268 281.093,74.1934 275.5,74.5C 275.5,66.5 275.5,58.5 275.5,50.5C 295.5,50.5 315.5,50.5 335.5,50.5C 335.5,58.5 335.5,66.5 335.5,74.5 Z"/></g>
<g><path style="opacity:1" fill="#ff5156" d="M 474.5,50.5 C 485.505,50.3335 496.505,50.5002 507.5,51C 536.023,83.888 564.189,117.055 592,150.5C 592.5,125.169 592.667,99.8355 592.5,74.5C 587.167,74.5 581.833,74.5 576.5,74.5C 576.5,66.5 576.5,58.5 576.5,50.5C 596.167,50.5 615.833,50.5 635.5,50.5C 635.5,58.5 635.5,66.5 635.5,74.5C 629.833,74.5 624.167,74.5 618.5,74.5C 618.5,116.5 618.5,158.5 618.5,200.5C 611.825,200.666 605.158,200.5 598.5,200C 571.667,167.833 544.833,135.667 518,103.5C 517.5,127.831 517.333,152.164 517.5,176.5C 523.167,176.5 528.833,176.5 534.5,176.5C 534.5,184.5 534.5,192.5 534.5,200.5C 514.5,200.5 494.5,200.5 474.5,200.5C 474.5,192.833 474.5,185.167 474.5,177.5C 480.093,177.807 485.593,177.473 491,176.5C 491.667,142.833 491.667,109.167 491,75.5C 485.593,74.5268 480.093,74.1934 474.5,74.5C 474.5,66.5 474.5,58.5 474.5,50.5 Z"/></g>
<g><path style="opacity:1" fill="#ff5157" d="M 737.5,74.5 C 731.833,74.5 726.167,74.5 720.5,74.5C 720.5,108.5 720.5,142.5 720.5,176.5C 725.833,176.5 731.167,176.5 736.5,176.5C 737.492,184.316 737.826,192.316 737.5,200.5C 717.5,200.5 697.5,200.5 677.5,200.5C 677.5,192.5 677.5,184.5 677.5,176.5C 683.167,176.5 688.833,176.5 694.5,176.5C 694.667,142.832 694.5,109.165 694,75.5C 688.593,74.5268 683.093,74.1934 677.5,74.5C 677.5,66.5 677.5,58.5 677.5,50.5C 697.5,50.5 717.5,50.5 737.5,50.5C 737.5,58.5 737.5,66.5 737.5,74.5 Z"/></g>
<g><path style="opacity:1" fill="#ff5256" d="M 829.5,76.5 C 830.043,76.44 830.376,76.1067 830.5,75.5C 822.193,74.5021 813.86,74.1688 805.5,74.5C 804.508,66.6841 804.174,58.6841 804.5,50.5C 821.18,50.1672 837.847,50.5005 854.5,51.5C 873.366,92.7725 892.032,134.106 910.5,175.5C 915.792,176.495 921.125,176.828 926.5,176.5C 926.5,184.5 926.5,192.5 926.5,200.5C 907.833,200.5 889.167,200.5 870.5,200.5C 870.5,192.5 870.5,184.5 870.5,176.5C 874.167,176.5 877.833,176.5 881.5,176.5C 880.123,171.411 878.457,166.411 876.5,161.5C 857.155,161.167 837.822,161.5 818.5,162.5C 815.688,166.784 814.021,171.451 813.5,176.5C 817.5,176.5 821.5,176.5 825.5,176.5C 825.5,184.5 825.5,192.5 825.5,200.5C 806.5,200.5 787.5,200.5 768.5,200.5C 768.5,192.5 768.5,184.5 768.5,176.5C 774.206,176.829 779.872,176.495 785.5,175.5C 799.921,142.33 814.588,109.33 829.5,76.5 Z"/></g>
<g><path style="opacity:1" fill="#ff5257" d="M 1162.5,82.5 C 1162.72,86.1621 1163.72,89.4954 1165.5,92.5C 1169.05,114.035 1163.05,132.202 1147.5,147C 1143.77,149.195 1140.1,151.362 1136.5,153.5C 1142.29,160.91 1147.95,168.41 1153.5,176C 1160.16,176.5 1166.83,176.666 1173.5,176.5C 1173.5,184.5 1173.5,192.5 1173.5,200.5C 1162.49,200.667 1151.49,200.5 1140.5,200C 1130.41,185.822 1120.08,171.822 1109.5,158C 1101.17,157.5 1092.84,157.334 1084.5,157.5C 1084.5,163.833 1084.5,170.167 1084.5,176.5C 1089.83,176.5 1095.17,176.5 1100.5,176.5C 1100.5,184.5 1100.5,192.5 1100.5,200.5C 1080.83,200.5 1061.17,200.5 1041.5,200.5C 1041.5,192.5 1041.5,184.5 1041.5,176.5C 1046.83,176.5 1052.17,176.5 1057.5,176.5C 1057.5,142.5 1057.5,108.5 1057.5,74.5C 1052.17,74.5 1046.83,74.5 1041.5,74.5C 1041.5,66.5 1041.5,58.5 1041.5,50.5C 1066.84,50.3334 1092.17,50.5 1117.5,51C 1134.1,52.6627 1147.6,59.8294 1158,72.5C 1159.79,75.7365 1161.29,79.0698 1162.5,82.5 Z"/></g>
<g><path style="opacity:1" fill="#ff5156" d="M 1261.5,76.5 C 1262.04,76.44 1262.38,76.1067 1262.5,75.5C 1254.19,74.5021 1245.86,74.1688 1237.5,74.5C 1237.5,66.5 1237.5,58.5 1237.5,50.5C 1254.18,50.1672 1270.85,50.5005 1287.5,51.5C 1305.66,93.3203 1323.99,134.987 1342.5,176.5C 1348.17,176.5 1353.83,176.5 1359.5,176.5C 1359.5,184.5 1359.5,192.5 1359.5,200.5C 1340.83,200.5 1322.17,200.5 1303.5,200.5C 1303.5,192.5 1303.5,184.5 1303.5,176.5C 1306.83,176.5 1310.17,176.5 1313.5,176.5C 1312.42,171.666 1310.75,166.999 1308.5,162.5C 1289.17,161.167 1269.83,161.167 1250.5,162.5C 1248.25,166.999 1246.58,171.666 1245.5,176.5C 1249.5,176.5 1253.5,176.5 1257.5,176.5C 1257.5,184.5 1257.5,192.5 1257.5,200.5C 1238.83,200.5 1220.17,200.5 1201.5,200.5C 1201.5,192.5 1201.5,184.5 1201.5,176.5C 1206.87,176.828 1212.21,176.495 1217.5,175.5C 1232.49,142.535 1247.15,109.535 1261.5,76.5 Z"/></g>
<g><path style="opacity:1" fill="#ff5156" d="M 1624.5,200.5 C 1624.2,192.414 1624.53,184.414 1625.5,176.5C 1628.5,176.5 1631.5,176.5 1634.5,176.5C 1632.99,171.484 1630.99,166.65 1628.5,162C 1609.5,161.333 1590.5,161.333 1571.5,162C 1569.06,166.594 1567.39,171.427 1566.5,176.5C 1570.5,176.5 1574.5,176.5 1578.5,176.5C 1578.5,184.5 1578.5,192.5 1578.5,200.5C 1559.5,200.5 1540.5,200.5 1521.5,200.5C 1521.5,192.5 1521.5,184.5 1521.5,176.5C 1526.84,176.666 1532.18,176.499 1537.5,176C 1553.18,142.474 1568.18,108.641 1582.5,74.5C 1574.17,74.5 1565.83,74.5 1557.5,74.5C 1557.5,66.5 1557.5,58.5 1557.5,50.5C 1574.41,50.1749 1591.24,50.5082 1608,51.5C 1625.32,90.1428 1642.65,128.809 1660,167.5C 1661.43,170.353 1662.26,173.353 1662.5,176.5C 1668.17,176.5 1673.83,176.5 1679.5,176.5C 1679.5,184.5 1679.5,192.5 1679.5,200.5C 1661.17,200.5 1642.83,200.5 1624.5,200.5 Z"/></g>
<g><path style="opacity:1" fill="#ff6267" d="M 741.5,53.5 C 748.149,57.8072 754.816,62.1405 761.5,66.5C 762.833,67.5 762.833,68.5 761.5,69.5C 754.998,65.75 748.665,61.75 742.5,57.5C 741.571,56.3112 741.238,54.9778 741.5,53.5 Z"/></g>
<g><path style="opacity:1" fill="#ff5f63" d="M 659.5,66.5 C 659.737,67.791 659.404,68.791 658.5,69.5C 652.529,65.5102 646.529,61.5102 640.5,57.5C 639.614,56.675 639.281,55.675 639.5,54.5C 646.426,57.9676 653.093,61.9676 659.5,66.5 Z"/></g>
<g><path style="opacity:1" fill="#ff6063" d="M 437.5,53.5 C 444.279,57.3946 450.945,61.5612 457.5,66C 458.731,67.1827 458.731,68.3493 457.5,69.5C 451.366,65.864 445.366,62.0306 439.5,58C 437.963,56.8904 437.297,55.3904 437.5,53.5 Z"/></g>
<g><path style="opacity:1" fill="#ff6569" d="M 338.5,57.5 C 345.731,61.1221 352.731,65.2888 359.5,70C 360.731,71.1827 360.731,72.3493 359.5,73.5C 352.833,69.1667 346.167,64.8333 339.5,60.5C 338.614,59.675 338.281,58.675 338.5,57.5 Z"/></g>
<g><path style="opacity:1" fill="#ff6063" d="M 1511.5,66.5 C 1511.67,67.4916 1511.34,68.1583 1510.5,68.5C 1504.86,65.011 1499.19,61.511 1493.5,58C 1490.98,56.0425 1490.98,54.7092 1493.5,54C 1499.35,58.423 1505.35,62.5897 1511.5,66.5 Z"/></g>
<g><path style="opacity:1" fill="#ff6064" d="M 860.5,54.5 C 866.471,58.4898 872.471,62.4898 878.5,66.5C 879.833,67.5 879.833,68.5 878.5,69.5C 873.5,66.3333 868.5,63.1667 863.5,60C 861.84,58.5123 860.84,56.679 860.5,54.5 Z"/></g>
<g><path style="opacity:1" fill="#ff6365" d="M 1292.5,54.5 C 1298.62,58.1096 1304.62,61.943 1310.5,66C 1311.73,67.1827 1311.73,68.3493 1310.5,69.5C 1305.63,66.1358 1300.63,62.9691 1295.5,60C 1293.84,58.5123 1292.84,56.679 1292.5,54.5 Z"/></g>
<g><path style="opacity:1" fill="#ff6569" d="M 1491.5,60.5 C 1498.39,64.0479 1505.06,68.0479 1511.5,72.5C 1512.83,73.8333 1512.83,75.1667 1511.5,76.5C 1505.67,72.4171 1499.67,68.5838 1493.5,65C 1491.96,63.8904 1491.3,62.3904 1491.5,60.5 Z"/></g>
<g><path style="opacity:1" fill="#ff5f64" d="M 1613.5,54.5 C 1620.38,58.4371 1626.71,63.1037 1632.5,68.5C 1631.21,69.4077 1629.88,69.241 1628.5,68C 1624.5,65.3333 1620.5,62.6667 1616.5,60C 1614.39,58.7365 1613.39,56.9032 1613.5,54.5 Z"/></g>
<g><path style="opacity:1" fill="#ff6266" d="M 437.5,60.5 C 445.209,64.3875 452.209,69.2209 458.5,75C 458.167,75.5 457.833,76 457.5,76.5C 451.833,73 446.167,69.5 440.5,66C 438.393,64.7365 437.393,62.9032 437.5,60.5 Z"/></g>
<g><path style="opacity:1" fill="#ff6167" d="M 741.5,60.5 C 748.016,64.8379 754.683,69.0046 761.5,73C 762.554,74.3876 762.72,75.8876 762,77.5C 755.586,73.0426 749.086,68.7093 742.5,64.5C 741.571,63.3112 741.238,61.9778 741.5,60.5 Z"/></g>
<g><path style="opacity:1" fill="#ff7075" d="M 518.5,59.5 C 524.669,61.3849 530.169,65.0515 535,70.5C 535.667,71.1667 535.667,71.8333 535,72.5C 529.015,68.7607 523.515,64.4273 518.5,59.5 Z"/></g>
<g><path style="opacity:1" fill="#ff6368" d="M 639.5,61.5 C 640.552,61.3505 641.552,61.5172 642.5,62C 647.328,65.5814 652.328,68.9148 657.5,72C 659.439,72.9078 660.439,74.4078 660.5,76.5C 654.173,73.6973 648.173,70.1973 642.5,66C 640.561,65.0922 639.561,63.5922 639.5,61.5 Z"/></g>
<g><path style="opacity:1" fill="#ff656a" d="M 338.5,64.5 C 345.279,68.3946 351.945,72.5612 358.5,77C 360.421,78.2408 360.754,79.7408 359.5,81.5C 353.669,77.4171 347.669,73.5838 341.5,70C 339.393,68.7365 338.393,66.9032 338.5,64.5 Z"/></g>
<g><path style="opacity:1" fill="#ff6166" d="M 1297.5,64.5 C 1303.62,68.1096 1309.62,71.943 1315.5,76C 1316.55,77.3876 1316.72,78.8876 1316,80.5C 1310.75,77.1237 1305.58,73.6237 1300.5,70C 1298.39,68.7365 1297.39,66.9032 1297.5,64.5 Z"/></g>
<g><path style="opacity:1" fill="#ff6467" d="M 1617.5,64.5 C 1624.37,68.1926 1630.87,72.526 1637,77.5C 1637.75,78.635 1637.58,79.635 1636.5,80.5C 1630.97,76.471 1625.3,72.6376 1619.5,69C 1618.42,67.6703 1617.75,66.1703 1617.5,64.5 Z"/></g>
<g><path style="opacity:1" fill="#ffa7c0" d="M 1511.5,66.5 C 1512.78,67.3864 1512.78,68.3864 1511.5,69.5C 1510.89,69.3764 1510.56,69.0431 1510.5,68.5C 1511.34,68.1583 1511.67,67.4916 1511.5,66.5 Z"/></g>
<g><path style="opacity:1" fill="#ff6265" d="M 437.5,68.5 C 444.394,72.0479 451.061,76.0479 457.5,80.5C 458.833,81.8333 458.833,83.1667 457.5,84.5C 451.167,80.3333 444.833,76.1667 438.5,72C 437.663,70.9887 437.33,69.8221 437.5,68.5 Z"/></g>
<g><path style="opacity:1" fill="#ffa5b6" d="M 659.5,66.5 C 660.782,67.7082 660.782,69.0416 659.5,70.5C 658.893,70.3764 658.56,70.0431 658.5,69.5C 659.404,68.791 659.737,67.791 659.5,66.5 Z"/></g>
<g><path style="opacity:1" fill="#ff6166" d="M 741.5,68.5 C 748.279,72.3946 754.945,76.5612 761.5,81C 762.731,82.1827 762.731,83.3493 761.5,84.5C 755.366,80.864 749.366,77.0306 743.5,73C 741.963,71.8904 741.297,70.3904 741.5,68.5 Z"/></g>
<g><path style="opacity:1" fill="#ff6065" d="M 865.5,64.5 C 871.9,68.4545 878.067,72.7879 884,77.5C 884.667,78.5 884.667,79.5 884,80.5C 877.721,76.554 871.721,72.2206 866,67.5C 865.517,66.552 865.351,65.552 865.5,64.5 Z"/></g>
<g><path style="opacity:1" fill="#ff666a" d="M 1491.5,68.5 C 1498.4,71.9562 1505.07,75.9562 1511.5,80.5C 1512.83,81.8333 1512.83,83.1667 1511.5,84.5C 1505.17,80.3333 1498.83,76.1667 1492.5,72C 1491.66,70.9887 1491.33,69.8221 1491.5,68.5 Z"/></g>
<g><path style="opacity:1" fill="#ff6265" d="M 639.5,68.5 C 646.451,72.3144 653.118,76.6477 659.5,81.5C 660.386,82.325 660.719,83.325 660.5,84.5C 659.448,84.6495 658.448,84.4828 657.5,84C 652.772,80.2744 647.772,76.9411 642.5,74C 640.393,72.7365 639.393,70.9032 639.5,68.5 Z"/></g>
<g><path style="opacity:1" fill="#ff666b" d="M 338.5,72.5 C 345.73,76.3835 352.73,80.7168 359.5,85.5C 360.614,86.723 360.781,88.0563 360,89.5C 352.91,85.3728 346.076,80.8728 339.5,76C 338.663,74.9887 338.33,73.8221 338.5,72.5 Z"/></g>
<g><path style="opacity:1" fill="#ffcbc9" d="M 805.5,74.5 C 813.86,74.1688 822.193,74.5021 830.5,75.5C 830.376,76.1067 830.043,76.44 829.5,76.5C 821.5,75.8333 813.5,75.1667 805.5,74.5 Z"/></g>
<g><path style="opacity:1" fill="#ffcecc" d="M 1237.5,74.5 C 1245.86,74.1688 1254.19,74.5021 1262.5,75.5C 1262.38,76.1067 1262.04,76.44 1261.5,76.5C 1253.5,75.8333 1245.5,75.1667 1237.5,74.5 Z"/></g>
<g><path style="opacity:1" fill="#fffafa" d="M 163.5,75.5 C 187.391,78.2187 202.558,91.2187 209,114.5C 211.947,134.996 205.78,152.163 190.5,166C 182.596,171.301 173.93,174.635 164.5,176C 152.505,176.5 140.505,176.667 128.5,176.5C 128.5,142.833 128.5,109.167 128.5,75.5C 140.167,75.5 151.833,75.5 163.5,75.5 Z"/></g>
<g><path style="opacity:1" fill="#fff8f7" d="M 1084.5,74.5 C 1093.17,74.3336 1101.84,74.5002 1110.5,75C 1131.58,78.1036 1140.42,90.2703 1137,111.5C 1134.13,124.03 1126.29,131.196 1113.5,133C 1103.84,133.5 1094.17,133.666 1084.5,133.5C 1084.5,113.833 1084.5,94.1667 1084.5,74.5 Z"/></g>
<g><path style="opacity:1" fill="#ff6064" d="M 1440.5,76.5 C 1442.29,75.3775 1444.29,75.2109 1446.5,76C 1451.18,79.0265 1455.51,82.3599 1459.5,86C 1459.17,86.5 1458.83,87 1458.5,87.5C 1452.47,83.7795 1446.47,80.1128 1440.5,76.5 Z"/></g>
<g><path style="opacity:1" fill="#ffcae1" d="M 163.5,75.5 C 151.833,75.5 140.167,75.5 128.5,75.5C 128.5,109.167 128.5,142.833 128.5,176.5C 127.502,142.671 127.168,108.671 127.5,74.5C 139.678,74.1716 151.678,74.5049 163.5,75.5 Z"/></g>
<g><path style="opacity:1" fill="#ffe6f4" d="M 335.5,74.5 C 330.36,75.4881 325.026,75.8214 319.5,75.5C 319.5,98.8333 319.5,122.167 319.5,145.5C 318.502,122.006 318.169,98.3392 318.5,74.5C 324.167,74.5 329.833,74.5 335.5,74.5 Z"/></g>
<g><path style="opacity:1" fill="#ffebf7" d="M 737.5,74.5 C 732.36,75.4881 727.026,75.8214 721.5,75.5C 721.5,108.833 721.5,142.167 721.5,175.5C 726.695,175.179 731.695,175.513 736.5,176.5C 731.167,176.5 725.833,176.5 720.5,176.5C 720.5,142.5 720.5,108.5 720.5,74.5C 726.167,74.5 731.833,74.5 737.5,74.5 Z"/></g>
<g><path style="opacity:1" fill="#ff6467" d="M 1163.5,73.5 C 1169.08,76.7469 1174.08,80.7469 1178.5,85.5C 1178,86.521 1177.33,86.6877 1176.5,86C 1172.83,83.5 1169.17,81 1165.5,78.5C 1164.05,77.1502 1163.38,75.4835 1163.5,73.5 Z"/></g>
<g><path style="opacity:1" fill="#ff6267" d="M 437.5,76.5 C 443.435,79.1355 449.102,82.3022 454.5,86C 456.746,87.2568 458.079,89.0901 458.5,91.5C 452.608,88.8837 446.941,85.7171 441.5,82C 439.254,80.7432 437.921,78.9099 437.5,76.5 Z"/></g>
<g><path style="opacity:1" fill="#ff6469" d="M 741.5,75.5 C 748.138,79.8229 754.805,84.1562 761.5,88.5C 762.386,89.325 762.719,90.325 762.5,91.5C 761.127,91.6567 759.793,91.49 758.5,91C 753.442,86.9429 748.108,83.2762 742.5,80C 741.62,78.6439 741.286,77.1439 741.5,75.5 Z"/></g>
<g><path style="opacity:1" fill="#ff6366" d="M 1431.5,76.5 C 1433.2,76.3398 1434.87,76.5065 1436.5,77C 1442.71,80.9328 1448.71,85.0994 1454.5,89.5C 1452.45,90.6627 1450.45,90.4961 1448.5,89C 1442.34,85.2794 1436.68,81.1127 1431.5,76.5 Z"/></g>
<g><path style="opacity:1" fill="#ff6164" d="M 131.5,78.5 C 133.308,78.4914 134.975,78.9914 136.5,80C 141.328,83.5814 146.328,86.9148 151.5,90C 152.731,91.1827 152.731,92.3493 151.5,93.5C 145.366,89.864 139.366,86.0306 133.5,82C 132.177,81.1841 131.511,80.0174 131.5,78.5 Z"/></g>
<g><path style="opacity:1" fill="#ff6468" d="M 141.5,79.5 C 142.946,78.3871 144.613,78.2204 146.5,79C 152.303,82.6376 157.97,86.471 163.5,90.5C 161.926,91.6309 160.259,91.7975 158.5,91C 152.805,87.1566 147.138,83.3233 141.5,79.5 Z"/></g>
<g><path style="opacity:1" fill="#ff6367" d="M 152.5,79.5 C 154.288,78.3775 156.288,78.2109 158.5,79C 164.167,82.8333 169.833,86.6667 175.5,90.5C 173.926,91.6309 172.259,91.7975 170.5,91C 164.616,86.943 158.616,83.1096 152.5,79.5 Z"/></g>
<g><path style="opacity:1" fill="#ff6467" d="M 322.5,78.5 C 324.655,78.372 326.655,78.872 328.5,80C 332.5,82.6667 336.5,85.3333 340.5,88C 343.055,89.258 343.722,91.0914 342.5,93.5C 336.669,89.4171 330.669,85.5838 324.5,82C 323.177,81.1841 322.511,80.0174 322.5,78.5 Z"/></g>
<g><path style="opacity:1" fill="#ff6367" d="M 333.5,79.5 C 334.946,78.3871 336.613,78.2204 338.5,79C 344.167,82.8333 349.833,86.6667 355.5,90.5C 353.926,91.6309 352.259,91.7975 350.5,91C 344.679,87.3367 339.012,83.5034 333.5,79.5 Z"/></g>
<g><path style="opacity:1" fill="#ff6669" d="M 426.5,79.5 C 427.946,78.3871 429.613,78.2204 431.5,79C 437.303,82.6376 442.97,86.471 448.5,90.5C 446.926,91.6309 445.259,91.7975 443.5,91C 437.805,87.1566 432.138,83.3233 426.5,79.5 Z"/></g>
<g><path style="opacity:1" fill="#ff6f70" d="M 533.5,76.5 C 533.56,75.9569 533.893,75.6236 534.5,75.5C 540.566,79.0606 545.899,83.5606 550.5,89C 547.902,88.8744 545.569,87.8744 543.5,86C 539.639,83.3039 536.306,80.1373 533.5,76.5 Z"/></g>
<g><path style="opacity:1" fill="#ff6266" d="M 627.5,79.5 C 628.946,78.3871 630.613,78.2204 632.5,79C 638.5,83 644.5,87 650.5,91C 648.833,91.6667 647.167,91.6667 645.5,91C 639.616,86.943 633.616,83.1096 627.5,79.5 Z"/></g>
<g><path style="opacity:1" fill="#ff6366" d="M 729.5,79.5 C 731.288,78.3775 733.288,78.2109 735.5,79C 741.167,82.8333 746.833,86.6667 752.5,90.5C 750.926,91.6309 749.259,91.7975 747.5,91C 741.641,86.9064 735.641,83.0731 729.5,79.5 Z"/></g>
<g><path style="opacity:1" fill="#ff6266" d="M 812.5,79.5 C 816.753,77.9434 820.087,79.2767 822.5,83.5C 821.635,84.5827 820.635,84.7494 819.5,84C 817.138,82.4894 814.805,80.9894 812.5,79.5 Z"/></g>
<g><path style="opacity:1" fill="#ff6064" d="M 1097.5,79.5 C 1098.95,78.3871 1100.61,78.2204 1102.5,79C 1108.5,83 1114.5,87 1120.5,91C 1118.83,91.6667 1117.17,91.6667 1115.5,91C 1109.62,86.943 1103.62,83.1096 1097.5,79.5 Z"/></g>
<g><path style="opacity:1" fill="#ff6063" d="M 1244.5,79.5 C 1248.75,77.9434 1252.09,79.2767 1254.5,83.5C 1253.64,84.5827 1252.64,84.7494 1251.5,84C 1249.28,82.2765 1246.95,80.7765 1244.5,79.5 Z"/></g>
<g><path style="opacity:1" fill="#ff6367" d="M 1565.5,78.5 C 1569.71,78.3734 1573.05,80.0401 1575.5,83.5C 1574.28,84.6139 1572.94,84.7805 1571.5,84C 1569.16,82.3662 1567.16,80.5329 1565.5,78.5 Z"/></g>
<g><path style="opacity:1" fill="#ff6064" d="M 1110.5,80.5 C 1111.95,79.3871 1113.61,79.2204 1115.5,80C 1120.89,83.0201 1125.89,86.5201 1130.5,90.5C 1129.28,91.6139 1127.94,91.7805 1126.5,91C 1121.31,87.241 1115.98,83.741 1110.5,80.5 Z"/></g>
<g><path style="opacity:1" fill="#ff6165" d="M 165.5,80.5 C 166.946,79.3871 168.613,79.2204 170.5,80C 176.337,83.4175 182.004,87.0842 187.5,91C 185.833,91.6667 184.167,91.6667 182.5,91C 176.931,87.2482 171.264,83.7482 165.5,80.5 Z"/></g>
<g><path style="opacity:1" fill="#ff6265" d="M 869.5,75.5 C 875.766,79.2507 881.933,83.2507 888,87.5C 888.667,88.8333 888.667,90.1667 888,91.5C 882.776,87.2771 877.276,83.4437 871.5,80C 870.418,78.6703 869.751,77.1703 869.5,75.5 Z"/></g>
<g><path style="opacity:1" fill="#ff6063" d="M 1301.5,76.5 C 1301.9,75.475 1302.56,75.3083 1303.5,76C 1309.09,79.7101 1314.59,83.5435 1320,87.5C 1320.75,88.635 1320.58,89.635 1319.5,90.5C 1312.67,86.7686 1306.67,82.1019 1301.5,76.5 Z"/></g>
<g><path style="opacity:1" fill="#ff6165" d="M 1426.5,79.5 C 1433.57,83.3698 1440.57,87.5365 1447.5,92C 1448.34,93.0113 1448.67,94.1779 1448.5,95.5C 1441.43,91.6302 1434.43,87.4635 1427.5,83C 1426.66,81.9887 1426.33,80.8221 1426.5,79.5 Z"/></g>
<g><path style="opacity:1" fill="#ff6365" d="M 1491.5,75.5 C 1497.8,79.447 1504.13,83.447 1510.5,87.5C 1511.83,88.8333 1511.83,90.1667 1510.5,91.5C 1504.5,87.5 1498.5,83.5 1492.5,79.5C 1491.57,78.3112 1491.24,76.9778 1491.5,75.5 Z"/></g>
<g><path style="opacity:1" fill="#ff6467" d="M 1622.5,75.5 C 1628.77,79.2507 1634.93,83.2507 1641,87.5C 1641.67,88.8333 1641.67,90.1667 1641,91.5C 1636.09,87.6288 1630.93,84.1288 1625.5,81C 1623.84,79.5123 1622.84,77.679 1622.5,75.5 Z"/></g>
<g><path style="opacity:1" fill="#ff6166" d="M 421.5,80.5 C 428.149,84.8072 434.816,89.1405 441.5,93.5C 442.614,94.723 442.781,96.0563 442,97.5C 435.586,93.0426 429.086,88.7093 422.5,84.5C 421.571,83.3112 421.238,81.9778 421.5,80.5 Z"/></g>
<g><path style="opacity:1" fill="#ff6b6d" d="M 227.5,79.5 C 233.58,83.4055 239.246,87.9055 244.5,93C 243.092,93.3152 241.759,92.9819 240.5,92C 237.772,89.6078 234.772,87.6078 231.5,86C 229.915,83.9307 228.581,81.764 227.5,79.5 Z"/></g>
<g><path style="opacity:1" fill="#ff6266" d="M 639.5,76.5 C 647.031,80.3637 654.031,85.0304 660.5,90.5C 659.277,91.6139 657.944,91.7805 656.5,91C 651.672,87.4186 646.672,84.0852 641.5,81C 639.963,79.8904 639.297,78.3904 639.5,76.5 Z"/></g>
<g><path style="opacity:1" fill="#ff789e" d="M 1162.5,82.5 C 1164.28,85.5046 1165.28,88.8379 1165.5,92.5C 1163.72,89.4954 1162.72,86.1621 1162.5,82.5 Z"/></g>
<g><path style="opacity:1" fill="#ff6366" d="M 131.5,85.5 C 138.394,89.0479 145.061,93.0479 151.5,97.5C 152.833,98.8333 152.833,100.167 151.5,101.5C 145.669,97.4171 139.669,93.5838 133.5,90C 131.963,88.8904 131.297,87.3904 131.5,85.5 Z"/></g>
<g><path style="opacity:1" fill="#ff6263" d="M 622.5,80.5 C 629.279,84.3946 635.945,88.5612 642.5,93C 643.554,94.3876 643.72,95.8876 643,97.5C 636.92,93.2095 630.753,89.0429 624.5,85C 622.963,83.8904 622.297,82.3904 622.5,80.5 Z"/></g>
<g><path style="opacity:1" fill="#ff6265" d="M 1108.5,90.5 C 1108.74,91.791 1108.4,92.791 1107.5,93.5C 1101.38,89.8904 1095.38,86.057 1089.5,82C 1088.66,80.9887 1088.33,79.8221 1088.5,78.5C 1095.43,81.9676 1102.09,85.9676 1108.5,90.5 Z"/></g>
<g><path style="opacity:1" fill="#ff6065" d="M 1167.5,83.5 C 1173.62,87.1096 1179.62,90.943 1185.5,95C 1186.55,96.3876 1186.72,97.8876 1186,99.5C 1181.09,95.6288 1175.93,92.1288 1170.5,89C 1168.39,87.7365 1167.39,85.9032 1167.5,83.5 Z"/></g>
<g><path style="opacity:1" fill="#ff6266" d="M 322.5,84.5 C 328.999,88.8112 335.665,92.9779 342.5,97C 343.554,98.3876 343.72,99.8876 343,101.5C 336.586,97.0426 330.086,92.7093 323.5,88.5C 322.571,87.3112 322.238,85.9778 322.5,84.5 Z"/></g>
<g><path style="opacity:1" fill="#ff6367" d="M 1088.5,85.5 C 1094.11,88.978 1099.78,92.478 1105.5,96C 1107.75,97.2568 1109.08,99.0901 1109.5,101.5C 1103.17,98.6973 1097.17,95.1973 1091.5,91C 1089.39,89.7365 1088.39,87.9032 1088.5,85.5 Z"/></g>
<g><path style="opacity:1" fill="#ff6567" d="M 874.5,86.5 C 880.111,89.978 885.777,93.478 891.5,97C 892.872,98.2419 893.872,99.7419 894.5,101.5C 893.998,102.521 893.332,102.688 892.5,102C 887.672,98.4186 882.672,95.0852 877.5,92C 875.84,90.5123 874.84,88.679 874.5,86.5 Z"/></g>
<g><path style="opacity:1" fill="#ff6165" d="M 1627.5,86.5 C 1633.64,90.0731 1639.64,93.9064 1645.5,98C 1646.73,99.1827 1646.73,100.349 1645.5,101.5C 1640.5,98.3333 1635.5,95.1667 1630.5,92C 1628.84,90.5123 1627.84,88.679 1627.5,86.5 Z"/></g>
<g><path style="opacity:1" fill="#ff6166" d="M 724.5,80.5 C 730.778,84.3109 737.111,88.1442 743.5,92C 745.421,93.2408 745.754,94.7408 744.5,96.5C 738.366,92.864 732.366,89.0306 726.5,85C 724.963,83.8904 724.297,82.3904 724.5,80.5 Z"/></g>
<g><path style="opacity:1" fill="#ff6066" d="M 1307.5,87.5 C 1313.28,90.5581 1318.94,93.8915 1324.5,97.5C 1326.12,98.8689 1326.62,100.536 1326,102.5C 1320.41,98.9574 1314.91,95.2907 1309.5,91.5C 1308.29,90.4231 1307.63,89.0898 1307.5,87.5 Z"/></g>
<g><path style="opacity:1" fill="#ff6363" d="M 622.5,88.5 C 629.193,91.6832 635.526,95.5165 641.5,100C 643.421,101.241 643.754,102.741 642.5,104.5C 636.167,100.333 629.833,96.1667 623.5,92C 622.663,90.9887 622.33,89.8221 622.5,88.5 Z"/></g>
<g><path style="opacity:1" fill="#ff6164" d="M 724.5,88.5 C 731.367,92.0048 738.033,96.0048 744.5,100.5C 745.833,101.833 745.833,103.167 744.5,104.5C 738.167,100.333 731.833,96.1667 725.5,92C 724.663,90.9887 724.33,89.8221 724.5,88.5 Z"/></g>
<g><path style="opacity:1" fill="#ff6468" d="M 1491.5,91.5 C 1498.39,95.0479 1505.06,99.0479 1511.5,103.5C 1512.83,104.833 1512.83,106.167 1511.5,107.5C 1505.17,103.333 1498.83,99.1667 1492.5,95C 1491.66,93.9887 1491.33,92.8221 1491.5,91.5 Z"/></g>
<g><path style="opacity:1" fill="#ff9fb7" d="M 1108.5,90.5 C 1109.78,91.7082 1109.78,93.0416 1108.5,94.5C 1107.89,94.3764 1107.56,94.0431 1107.5,93.5C 1108.4,92.791 1108.74,91.791 1108.5,90.5 Z"/></g>
<g><path style="opacity:1" fill="#ff6365" d="M 1423.5,84.5 C 1431.42,88.9497 1438.76,94.1164 1445.5,100C 1445.17,100.5 1444.83,101 1444.5,101.5C 1437.83,97.1667 1431.17,92.8333 1424.5,88.5C 1423.57,87.3112 1423.24,85.9778 1423.5,84.5 Z"/></g>
<g><path style="opacity:1" fill="#ff6365" d="M 1491.5,83.5 C 1498.53,87.0197 1505.2,91.1863 1511.5,96C 1512.73,97.1827 1512.73,98.3493 1511.5,99.5C 1505.37,95.864 1499.37,92.0306 1493.5,88C 1491.96,86.8904 1491.3,85.3904 1491.5,83.5 Z"/></g>
<g><path style="opacity:1" fill="#ff6265" d="M 131.5,93.5 C 137.855,96.3464 143.855,99.8464 149.5,104C 151.439,104.908 152.439,106.408 152.5,108.5C 151.448,108.649 150.448,108.483 149.5,108C 144.004,104.084 138.337,100.418 132.5,97C 131.663,95.9887 131.33,94.8221 131.5,93.5 Z"/></g>
<g><path style="opacity:1" fill="#ff6266" d="M 234.5,92.5 C 234.897,91.475 235.563,91.3083 236.5,92C 241.228,95.7256 246.228,99.0589 251.5,102C 253.014,103.439 253.347,104.939 252.5,106.5C 248.668,103.75 244.668,101.25 240.5,99C 237.655,97.4547 235.655,95.288 234.5,92.5 Z"/></g>
<g><path style="opacity:1" fill="#ff6063" d="M 322.5,92.5 C 329.279,96.3946 335.945,100.561 342.5,105C 343.731,106.183 343.731,107.349 342.5,108.5C 335.998,104.75 329.665,100.75 323.5,96.5C 322.571,95.3112 322.238,93.9778 322.5,92.5 Z"/></g>
<g><path style="opacity:1" fill="#ff6165" d="M 1088.5,93.5 C 1095.28,97.3946 1101.95,101.561 1108.5,106C 1109.73,107.183 1109.73,108.349 1108.5,109.5C 1102.37,105.864 1096.37,102.031 1090.5,98C 1088.96,96.8904 1088.3,95.3904 1088.5,93.5 Z"/></g>
<g><path style="opacity:1" fill="#ff5f62" d="M 1169.5,93.5 C 1175.61,96.7244 1181.61,100.224 1187.5,104C 1189.42,105.241 1189.75,106.741 1188.5,108.5C 1182.67,104.417 1176.67,100.584 1170.5,97C 1169.66,95.9887 1169.33,94.8221 1169.5,93.5 Z"/></g>
<g><path style="opacity:1" fill="#ff6468" d="M 1425.5,93.5 C 1432.36,97.0949 1438.7,101.428 1444.5,106.5C 1443.64,107.583 1442.64,107.749 1441.5,107C 1437.33,104.083 1433,101.416 1428.5,99C 1426.39,97.7365 1425.39,95.9032 1425.5,93.5 Z"/></g>
<g><path style="opacity:1" fill="#ff6066" d="M 421.5,88.5 C 428.279,92.3946 434.945,96.5612 441.5,101C 442.731,102.183 442.731,103.349 441.5,104.5C 435.366,100.864 429.366,97.0306 423.5,93C 421.963,91.8904 421.297,90.3904 421.5,88.5 Z"/></g>
<g><path style="opacity:1" fill="#ff6468" d="M 724.5,95.5 C 731.149,99.8072 737.816,104.141 744.5,108.5C 745.614,109.723 745.781,111.056 745,112.5C 738.586,108.043 732.086,103.709 725.5,99.5C 724.571,98.3112 724.238,96.9778 724.5,95.5 Z"/></g>
<g><path style="opacity:1" fill="#fff2f1" d="M 1599.5,96.5 C 1600.75,96.5774 1601.58,97.244 1602,98.5C 1608.36,112.212 1613.86,126.212 1618.5,140.5C 1606.17,140.5 1593.83,140.5 1581.5,140.5C 1586.97,125.565 1592.97,110.899 1599.5,96.5 Z"/></g>
<g><path style="opacity:1" fill="#ff6167" d="M 421.5,95.5 C 428.138,99.8229 434.805,104.156 441.5,108.5C 442.833,109.833 442.833,111.167 441.5,112.5C 435.167,108.333 428.833,104.167 422.5,100C 421.62,98.6439 421.286,97.1439 421.5,95.5 Z"/></g>
<g><path style="opacity:1" fill="#ff6065" d="M 550.5,94.5 C 555.874,97.1025 560.374,100.769 564,105.5C 564.667,106.167 564.667,106.833 564,107.5C 561.766,105.3 559.266,103.467 556.5,102C 553.882,99.8943 551.882,97.3943 550.5,94.5 Z"/></g>
<g><path style="opacity:1" fill="#fff2f1" d="M 846.5,96.5 C 847.376,96.3691 848.043,96.7025 848.5,97.5C 855.038,111.562 860.704,125.895 865.5,140.5C 853.167,140.5 840.833,140.5 828.5,140.5C 833.938,125.622 839.938,110.955 846.5,96.5 Z"/></g>
<g><path style="opacity:1" fill="#fff2f1" d="M 1278.5,96.5 C 1279.5,96.4142 1280.33,96.7476 1281,97.5C 1286.64,111.432 1292.48,125.265 1298.5,139C 1286.33,140.479 1273.99,140.979 1261.5,140.5C 1261.34,138.801 1261.51,137.134 1262,135.5C 1267.95,122.738 1273.45,109.738 1278.5,96.5 Z"/></g>
<g><path style="opacity:1" fill="#ff6366" d="M 879.5,97.5 C 885.599,101.083 891.599,104.917 897.5,109C 898.731,110.183 898.731,111.349 897.5,112.5C 892.5,109.333 887.5,106.167 882.5,103C 880.84,101.512 879.84,99.679 879.5,97.5 Z"/></g>
<g><path style="opacity:1" fill="#ff6568" d="M 1311.5,97.5 C 1317.26,100.748 1322.93,104.248 1328.5,108C 1330.33,109.489 1331.17,111.322 1331,113.5C 1325.17,109.667 1319.33,105.833 1313.5,102C 1312.42,100.67 1311.75,99.1703 1311.5,97.5 Z"/></g>
<g><path style="opacity:1" fill="#ff6669" d="M 1476.5,98.5 C 1478.2,98.3398 1479.87,98.5065 1481.5,99C 1487.17,102.833 1492.83,106.667 1498.5,110.5C 1496.93,111.631 1495.26,111.798 1493.5,111C 1487.33,107.3 1481.66,103.133 1476.5,98.5 Z"/></g>
<g><path style="opacity:1" fill="#ff6063" d="M 622.5,96.5 C 623.552,96.3505 624.552,96.5172 625.5,97C 631.167,100.833 636.833,104.667 642.5,108.5C 643.614,109.723 643.781,111.056 643,112.5C 636.586,108.043 630.086,103.709 623.5,99.5C 622.614,98.675 622.281,97.675 622.5,96.5 Z"/></g>
<g><path style="opacity:1" fill="#ff6064" d="M 1632.5,97.5 C 1639.42,101.434 1645.76,106.1 1651.5,111.5C 1650.21,112.408 1648.88,112.241 1647.5,111C 1643.5,108.333 1639.5,105.667 1635.5,103C 1633.39,101.736 1632.39,99.9032 1632.5,97.5 Z"/></g>
<g><path style="opacity:1" fill="#ff6668" d="M 131.5,100.5 C 138.279,104.395 144.945,108.561 151.5,113C 152.731,114.183 152.731,115.349 151.5,116.5C 144.998,112.75 138.665,108.75 132.5,104.5C 131.571,103.311 131.238,101.978 131.5,100.5 Z"/></g>
<g><path style="opacity:1" fill="#ff6166" d="M 322.5,100.5 C 323.552,100.351 324.552,100.517 325.5,101C 330.821,105.328 336.488,109.162 342.5,112.5C 343.833,113.833 343.833,115.167 342.5,116.5C 336.167,112.333 329.833,108.167 323.5,104C 322.663,102.989 322.33,101.822 322.5,100.5 Z"/></g>
<g><path style="opacity:1" fill="#ff6267" d="M 1088.5,101.5 C 1095.39,105.048 1102.06,109.048 1108.5,113.5C 1109.83,114.833 1109.83,116.167 1108.5,117.5C 1102.03,113.53 1095.7,109.363 1089.5,105C 1088.66,103.989 1088.33,102.822 1088.5,101.5 Z"/></g>
<g><path style="opacity:1" fill="#ff6264" d="M 1488.5,98.5 C 1496.17,101.172 1503.17,105.172 1509.5,110.5C 1507.45,111.663 1505.45,111.496 1503.5,110C 1498,106.611 1493,102.777 1488.5,98.5 Z"/></g>
<g><path style="opacity:1" fill="#ff6366" d="M 238.5,102.5 C 246.064,105.774 252.731,110.274 258.5,116C 258.167,116.5 257.833,117 257.5,117.5C 251.366,113.864 245.366,110.031 239.5,106C 238.663,104.989 238.33,103.822 238.5,102.5 Z"/></g>
<g><path style="opacity:1" fill="#ff5f65" d="M 421.5,103.5 C 428.149,107.807 434.816,112.141 441.5,116.5C 442.614,117.723 442.781,119.056 442,120.5C 435.586,116.043 429.086,111.709 422.5,107.5C 421.571,106.311 421.238,104.978 421.5,103.5 Z"/></g>
<g><path style="opacity:1" fill="#ff6565" d="M 622.5,103.5 C 629.279,107.395 635.945,111.561 642.5,116C 643.554,117.388 643.72,118.888 643,120.5C 636.586,116.043 630.086,111.709 623.5,107.5C 622.571,106.311 622.238,104.978 622.5,103.5 Z"/></g>
<g><path style="opacity:1" fill="#ff78a1" d="M 234.5,102.5 C 235.924,104.515 236.59,106.848 236.5,109.5C 235.076,107.485 234.41,105.152 234.5,102.5 Z"/></g>
<g><path style="opacity:1" fill="#ff6164" d="M 724.5,103.5 C 731.279,107.395 737.945,111.561 744.5,116C 745.731,117.183 745.731,118.349 744.5,119.5C 738.366,115.864 732.366,112.031 726.5,108C 724.963,106.89 724.297,105.39 724.5,103.5 Z"/></g>
<g><path style="opacity:1" fill="#ff686d" d="M 845.5,107.5 C 848.932,107.248 849.932,108.581 848.5,111.5C 846.712,110.717 845.712,109.384 845.5,107.5 Z"/></g>
<g><path style="opacity:1" fill="#ff6e6a" d="M 1277.5,107.5 C 1278.83,107.5 1280.17,107.5 1281.5,107.5C 1281.66,108.873 1281.49,110.207 1281,111.5C 1278.93,110.897 1277.76,109.564 1277.5,107.5 Z"/></g>
<g><path style="opacity:1" fill="#ff605f" d="M 1601.5,108.5 C 1601.5,109.5 1601.5,110.5 1601.5,111.5C 1597.64,108.986 1597.64,107.986 1601.5,108.5 Z"/></g>
<g><path style="opacity:1" fill="#ff6566" d="M 131.5,108.5 C 138.531,112.02 145.197,116.186 151.5,121C 152.731,122.183 152.731,123.349 151.5,124.5C 145.366,120.864 139.366,117.031 133.5,113C 131.963,111.89 131.297,110.39 131.5,108.5 Z"/></g>
<g><path style="opacity:1" fill="#ff6165" d="M 322.5,108.5 C 329.399,111.956 336.065,115.956 342.5,120.5C 343.614,121.723 343.781,123.056 343,124.5C 336.755,119.959 330.255,115.792 323.5,112C 322.663,110.989 322.33,109.822 322.5,108.5 Z"/></g>
<g><path style="opacity:1" fill="#ff6266" d="M 1088.5,109.5 C 1095.39,113.048 1102.06,117.048 1108.5,121.5C 1109.83,122.833 1109.83,124.167 1108.5,125.5C 1101.99,121.414 1095.66,117.08 1089.5,112.5C 1088.61,111.675 1088.28,110.675 1088.5,109.5 Z"/></g>
<g><path style="opacity:1" fill="#ff6466" d="M 1169.5,108.5 C 1176.73,112.384 1183.73,116.717 1190.5,121.5C 1191.83,122.833 1191.83,124.167 1190.5,125.5C 1184.17,121.333 1177.83,117.167 1171.5,113C 1169.96,111.89 1169.3,110.39 1169.5,108.5 Z"/></g>
<g><path style="opacity:1" fill="#ff6267" d="M 1170.5,101.5 C 1178.21,105.388 1185.21,110.221 1191.5,116C 1191.17,116.5 1190.83,117 1190.5,117.5C 1184.37,113.864 1178.37,110.031 1172.5,106C 1170.96,104.89 1170.3,103.39 1170.5,101.5 Z"/></g>
<g><path style="opacity:1" fill="#ffa1cc" d="M 1601.5,108.5 C 1602.39,109.261 1603.06,110.261 1603.5,111.5C 1603.03,112.463 1602.36,112.463 1601.5,111.5C 1601.5,110.5 1601.5,109.5 1601.5,108.5 Z"/></g>
<g><path style="opacity:1" fill="#ff6469" d="M 1636.5,109.5 C 1637.72,108.535 1639.05,108.702 1640.5,110C 1644.99,113.414 1649.66,116.581 1654.5,119.5C 1656.12,120.869 1656.62,122.536 1656,124.5C 1651.25,121.209 1646.42,118.042 1641.5,115C 1639.6,113.27 1637.93,111.437 1636.5,109.5 Z"/></g>
<g><path style="opacity:1" fill="#ff6466" d="M 240.5,111.5 C 247.869,114.937 254.702,119.271 261,124.5C 261.749,125.635 261.583,126.635 260.5,127.5C 254.669,123.417 248.669,119.584 242.5,116C 240.963,114.89 240.297,113.39 240.5,111.5 Z"/></g>
<g><path style="opacity:1" fill="#ff5f65" d="M 421.5,111.5 C 429.189,115.359 436.189,120.192 442.5,126C 442.167,126.5 441.833,127 441.5,127.5C 435.366,123.864 429.366,120.031 423.5,116C 421.963,114.89 421.297,113.39 421.5,111.5 Z"/></g>
<g><path style="opacity:1" fill="#ff6369" d="M 844.5,112.5 C 847.726,114.702 850.893,117.035 854,119.5C 854.749,120.635 854.583,121.635 853.5,122.5C 850.5,120.5 847.5,118.5 844.5,116.5C 843.374,115.192 843.374,113.858 844.5,112.5 Z"/></g>
<g><path style="opacity:1" fill="#ff6668" d="M 1276.5,112.5 C 1279.79,114.616 1282.96,116.949 1286,119.5C 1286.75,120.635 1286.58,121.635 1285.5,122.5C 1282.5,120.5 1279.5,118.5 1276.5,116.5C 1275.37,115.192 1275.37,113.858 1276.5,112.5 Z"/></g>
<g><path style="opacity:1" fill="#ff6164" d="M 724.5,111.5 C 731.11,114.808 737.444,118.642 743.5,123C 745.421,124.241 745.754,125.741 744.5,127.5C 738.669,123.417 732.669,119.584 726.5,116C 724.963,114.89 724.297,113.39 724.5,111.5 Z"/></g>
<g><path style="opacity:1" fill="#ff6265" d="M 1316.5,108.5 C 1322.6,112.083 1328.6,115.917 1334.5,120C 1335.29,121.085 1335.96,122.252 1336.5,123.5C 1336,124.521 1335.33,124.688 1334.5,124C 1329.67,120.419 1324.67,117.085 1319.5,114C 1317.84,112.512 1316.84,110.679 1316.5,108.5 Z"/></g>
<g><path style="opacity:1" fill="#ff656b" d="M 1596.5,112.5 C 1599,114.144 1601.67,115.644 1604.5,117C 1606.56,118.572 1607.23,120.405 1606.5,122.5C 1603.5,120.5 1600.5,118.5 1597.5,116.5C 1596.57,115.311 1596.24,113.978 1596.5,112.5 Z"/></g>
<g><path style="opacity:1" fill="#ff6d72" d="M 563.5,112.5 C 564.251,111.427 565.251,111.26 566.5,112C 571.601,114.933 575.935,118.766 579.5,123.5C 579.167,123.833 578.833,124.167 578.5,124.5C 572.904,121.236 567.904,117.236 563.5,112.5 Z"/></g>
<g><path style="opacity:1" fill="#ff6464" d="M 622.5,111.5 C 629.699,115.188 636.532,119.521 643,124.5C 643.667,125.833 643.667,127.167 643,128.5C 636.92,124.21 630.753,120.043 624.5,116C 622.963,114.89 622.297,113.39 622.5,111.5 Z"/></g>
<g><path style="opacity:1" fill="#ff6268" d="M 884.5,108.5 C 890.309,111.907 895.975,115.574 901.5,119.5C 903.124,120.869 903.624,122.536 903,124.5C 898.093,120.629 892.926,117.129 887.5,114C 885.393,112.736 884.393,110.903 884.5,108.5 Z"/></g>
<g><path style="opacity:1" fill="#ff6265" d="M 1168.5,116.5 C 1169.55,116.351 1170.55,116.517 1171.5,117C 1177.37,121.031 1183.37,124.864 1189.5,128.5C 1190.83,129.833 1190.83,131.167 1189.5,132.5C 1183.17,128.333 1176.83,124.167 1170.5,120C 1169.18,119.184 1168.51,118.017 1168.5,116.5 Z"/></g>
<g><path style="opacity:1" fill="#ff6165" d="M 322.5,115.5 C 329.279,119.395 335.945,123.561 342.5,128C 343.731,129.183 343.731,130.349 342.5,131.5C 336.331,127.916 330.331,124.083 324.5,120C 322.963,118.89 322.297,117.39 322.5,115.5 Z"/></g>
<g><path style="opacity:1" fill="#ff797d" d="M 521.5,114.5 C 524.596,115.76 526.929,117.926 528.5,121C 524.541,120.673 522.207,118.506 521.5,114.5 Z"/></g>
<g><path style="opacity:1" fill="#ff6567" d="M 131.5,116.5 C 138.394,120.048 145.061,124.048 151.5,128.5C 152.833,129.833 152.833,131.167 151.5,132.5C 145.167,128.333 138.833,124.167 132.5,120C 131.663,118.989 131.33,117.822 131.5,116.5 Z"/></g>
<g><path style="opacity:1" fill="#ff6266" d="M 241.5,119.5 C 248.11,122.808 254.444,126.642 260.5,131C 262.421,132.241 262.754,133.741 261.5,135.5C 255.669,131.417 249.669,127.584 243.5,124C 241.963,122.89 241.297,121.39 241.5,119.5 Z"/></g>
<g><path style="opacity:1" fill="#ff6167" d="M 421.5,119.5 C 428.531,123.02 435.197,127.186 441.5,132C 442.731,133.183 442.731,134.349 441.5,135.5C 435.669,131.417 429.669,127.584 423.5,124C 421.963,122.89 421.297,121.39 421.5,119.5 Z"/></g>
<g><path style="opacity:1" fill="#ff6363" d="M 622.5,119.5 C 623.552,119.351 624.552,119.517 625.5,120C 630.558,124.057 635.892,127.724 641.5,131C 643.421,132.241 643.754,133.741 642.5,135.5C 637.302,131.803 631.969,128.303 626.5,125C 624.254,123.743 622.921,121.91 622.5,119.5 Z"/></g>
<g><path style="opacity:1" fill="#ff6265" d="M 724.5,119.5 C 731.443,122.974 738.109,126.974 744.5,131.5C 745.614,132.723 745.781,134.056 745,135.5C 738.755,130.959 732.255,126.792 725.5,123C 724.663,121.989 724.33,120.822 724.5,119.5 Z"/></g>
<g><path style="opacity:1" fill="#ff6166" d="M 889.5,119.5 C 895.309,122.907 900.975,126.574 906.5,130.5C 908.124,131.869 908.624,133.536 908,135.5C 901.823,131.412 895.823,127.078 890,122.5C 889.517,121.552 889.351,120.552 889.5,119.5 Z"/></g>
<g><path style="opacity:1" fill="#ff6266" d="M 1321.5,119.5 C 1327.87,123.105 1334.03,127.105 1340,131.5C 1340.67,132.833 1340.67,134.167 1340,135.5C 1335.09,131.629 1329.93,128.129 1324.5,125C 1322.84,123.512 1321.84,121.679 1321.5,119.5 Z"/></g>
<g><path style="opacity:1" fill="#ff6267" d="M 1642.5,119.5 C 1648.31,122.907 1653.98,126.574 1659.5,130.5C 1661.12,131.869 1661.62,133.536 1661,135.5C 1654.72,131.554 1648.72,127.221 1643,122.5C 1642.52,121.552 1642.35,120.552 1642.5,119.5 Z"/></g>
<g><path style="opacity:1" fill="#ff6264" d="M 840.5,119.5 C 845.048,121.107 849.381,123.274 853.5,126C 856.224,127.522 858.224,129.689 859.5,132.5C 858.998,133.521 858.332,133.688 857.5,133C 852.672,129.419 847.672,126.085 842.5,123C 841.177,122.184 840.511,121.017 840.5,119.5 Z"/></g>
<g><path style="opacity:1" fill="#ff686b" d="M 1088.5,116.5 C 1095.13,120.781 1101.8,125.114 1108.5,129.5C 1106.93,130.631 1105.26,130.798 1103.5,130C 1099.17,127 1094.83,124 1090.5,121C 1088.96,119.89 1088.3,118.39 1088.5,116.5 Z"/></g>
<g><path style="opacity:1" fill="#ff6266" d="M 1272.5,119.5 C 1273.87,119.343 1275.21,119.51 1276.5,120C 1280.5,122.667 1284.5,125.333 1288.5,128C 1290.21,129.378 1291.55,131.045 1292.5,133C 1291.09,133.315 1289.76,132.982 1288.5,132C 1283.67,128.419 1278.67,125.085 1273.5,122C 1272.75,121.329 1272.41,120.496 1272.5,119.5 Z"/></g>
<g><path style="opacity:1" fill="#ff6267" d="M 1594.5,118.5 C 1599.68,122.171 1605.01,125.671 1610.5,129C 1611.29,130.085 1611.96,131.252 1612.5,132.5C 1612,133.521 1611.33,133.688 1610.5,133C 1604.44,129.31 1598.77,125.143 1593.5,120.5C 1593.86,119.817 1594.2,119.15 1594.5,118.5 Z"/></g>
<g><path style="opacity:1" fill="#ff676a" d="M 521.5,122.5 C 529.585,126.208 536.585,131.375 542.5,138C 535.686,134.579 529.02,130.579 522.5,126C 521.663,124.989 521.33,123.822 521.5,122.5 Z"/></g>
<g><path style="opacity:1" fill="#ff6566" d="M 1166.5,122.5 C 1174.72,126.103 1182.06,130.936 1188.5,137C 1188.17,137.5 1187.83,138 1187.5,138.5C 1181.83,135 1176.17,131.5 1170.5,128C 1168.25,126.743 1166.92,124.91 1166.5,122.5 Z"/></g>
<g><path style="opacity:1" fill="#ff6365" d="M 131.5,124.5 C 132.552,124.351 133.552,124.517 134.5,125C 138.898,128.394 143.565,131.394 148.5,134C 150.746,135.257 152.079,137.09 152.5,139.5C 146.173,136.697 140.173,133.197 134.5,129C 132.561,128.092 131.561,126.592 131.5,124.5 Z"/></g>
<g><path style="opacity:1" fill="#ff6064" d="M 322.5,123.5 C 329.11,126.808 335.444,130.642 341.5,135C 343.421,136.241 343.754,137.741 342.5,139.5C 336.366,135.864 330.366,132.031 324.5,128C 322.963,126.89 322.297,125.39 322.5,123.5 Z"/></g>
<g><path style="opacity:1" fill="#ff5f64" d="M 1088.5,124.5 C 1091.52,125.343 1094.18,126.843 1096.5,129C 1092.05,130.284 1089.38,128.784 1088.5,124.5 Z"/></g>
<g><path style="opacity:1" fill="#ff6467" d="M 838.5,124.5 C 844.309,127.907 849.975,131.574 855.5,135.5C 853.926,136.631 852.259,136.798 850.5,136C 846.667,133.5 842.833,131 839,128.5C 838.51,127.207 838.343,125.873 838.5,124.5 Z"/></g>
<g><path style="opacity:1" fill="#ff6367" d="M 1271.5,124.5 C 1277.01,128.503 1282.68,132.337 1288.5,136C 1286.5,136.667 1284.5,136.667 1282.5,136C 1278.2,133.359 1274.2,130.359 1270.5,127C 1270.74,126.098 1271.08,125.265 1271.5,124.5 Z"/></g>
<g><path style="opacity:1" fill="#ff6367" d="M 1591.5,124.5 C 1596.97,128.405 1602.63,132.072 1608.5,135.5C 1606.1,136.724 1603.77,136.558 1601.5,135C 1598.42,132.71 1595.25,130.543 1592,128.5C 1591.51,127.207 1591.34,125.873 1591.5,124.5 Z"/></g>
<g><path style="opacity:1" fill="#ff6362" d="M 622.5,126.5 C 629.149,130.807 635.816,135.141 642.5,139.5C 643.614,140.723 643.781,142.056 643,143.5C 636.586,139.043 630.086,134.709 623.5,130.5C 622.571,129.311 622.238,127.978 622.5,126.5 Z"/></g>
<g><path style="opacity:1" fill="#ff6164" d="M 1164.5,128.5 C 1171.94,132.727 1179.28,137.227 1186.5,142C 1187.83,144.333 1187.17,145.333 1184.5,145C 1178.5,141 1172.5,137 1166.5,133C 1164.96,131.89 1164.3,130.39 1164.5,128.5 Z"/></g>
<g><path style="opacity:1" fill="#ffa1a6" d="M 583.5,131.5 C 582.508,131.328 581.842,131.662 581.5,132.5C 577.787,127.682 578.453,127.348 583.5,131.5 Z"/></g>
<g><path style="opacity:1" fill="#ff6365" d="M 241.5,127.5 C 248.596,131.413 255.596,135.58 262.5,140C 263.337,141.011 263.67,142.178 263.5,143.5C 256.269,139.878 249.269,135.711 242.5,131C 241.663,129.989 241.33,128.822 241.5,127.5 Z"/></g>
<g><path style="opacity:1" fill="#ff6065" d="M 421.5,126.5 C 428.138,130.823 434.805,135.156 441.5,139.5C 442.614,140.723 442.781,142.056 442,143.5C 435.415,139.458 428.915,135.291 422.5,131C 421.62,129.644 421.286,128.144 421.5,126.5 Z"/></g>
<g><path style="opacity:1" fill="#ff6165" d="M 521.5,129.5 C 528.279,133.395 534.945,137.561 541.5,142C 542.731,143.183 542.731,144.349 541.5,145.5C 535.167,141.5 528.833,137.5 522.5,133.5C 521.571,132.311 521.238,130.978 521.5,129.5 Z"/></g>
<g><path style="opacity:1" fill="#ff6064" d="M 724.5,126.5 C 730.999,130.811 737.665,134.978 744.5,139C 745.731,140.183 745.731,141.349 744.5,142.5C 738.833,139 733.167,135.5 727.5,132C 725.393,130.736 724.393,128.903 724.5,126.5 Z"/></g>
<g><path style="opacity:1" fill="#ff666a" d="M 836.5,130.5 C 838.98,131.912 841.313,133.578 843.5,135.5C 840.083,137.116 837.417,136.282 835.5,133C 835.743,132.098 836.077,131.265 836.5,130.5 Z"/></g>
<g><path style="opacity:1" fill="#ff676a" d="M 1268.5,130.5 C 1271.02,131.924 1273.35,133.591 1275.5,135.5C 1272.07,136.793 1269.4,135.793 1267.5,132.5C 1267.86,131.817 1268.2,131.15 1268.5,130.5 Z"/></g>
<g><path style="opacity:1" fill="#ff6366" d="M 131.5,131.5 C 138.279,135.395 144.945,139.561 151.5,144C 152.731,145.183 152.731,146.349 151.5,147.5C 145.366,143.864 139.366,140.031 133.5,136C 131.963,134.89 131.297,133.39 131.5,131.5 Z"/></g>
<g><path style="opacity:1" fill="#ff676a" d="M 583.5,131.5 C 584.885,132.614 586.385,133.614 588,134.5C 588.667,135.833 588.667,137.167 588,138.5C 585.336,137.002 583.17,135.002 581.5,132.5C 581.842,131.662 582.508,131.328 583.5,131.5 Z"/></g>
<g><path style="opacity:1" fill="#ff6367" d="M 1588.5,131.5 C 1591.38,132.274 1594.05,133.607 1596.5,135.5C 1592.25,137.233 1589.58,135.9 1588.5,131.5 Z"/></g>
<g><path style="opacity:1" fill="#ff6367" d="M 322.5,131.5 C 323.552,131.351 324.552,131.517 325.5,132C 331.167,135.833 336.833,139.667 342.5,143.5C 343.833,144.833 343.833,146.167 342.5,147.5C 336.167,143.333 329.833,139.167 323.5,135C 322.663,133.989 322.33,132.822 322.5,131.5 Z"/></g>
<g><path style="opacity:1" fill="#ff6368" d="M 521.5,137.5 C 528.394,141.048 535.061,145.048 541.5,149.5C 542.833,150.833 542.833,152.167 541.5,153.5C 535.167,149.333 528.833,145.167 522.5,141C 521.663,139.989 521.33,138.822 521.5,137.5 Z"/></g>
<g><path style="opacity:1" fill="#ff6165" d="M 724.5,134.5 C 731.11,137.808 737.444,141.642 743.5,146C 745.421,147.241 745.754,148.741 744.5,150.5C 738.031,146.53 731.698,142.363 725.5,138C 724.663,136.989 724.33,135.822 724.5,134.5 Z"/></g>
<g><path style="opacity:1" fill="#ff6468" d="M 894.5,130.5 C 899.68,134.171 905.014,137.671 910.5,141C 912.213,142.378 913.547,144.045 914.5,146C 907.313,143.193 900.813,139.026 895,133.5C 894.517,132.552 894.351,131.552 894.5,130.5 Z"/></g>
<g><path style="opacity:1" fill="#ff6063" d="M 1162.5,134.5 C 1170.19,139.008 1177.52,144.008 1184.5,149.5C 1182.05,150.314 1179.72,149.814 1177.5,148C 1172.77,144.274 1167.77,140.941 1162.5,138C 1161.32,136.855 1161.32,135.688 1162.5,134.5 Z"/></g>
<g><path style="opacity:1" fill="#ff656b" d="M 1326.5,130.5 C 1332.62,134.11 1338.62,137.943 1344.5,142C 1345.29,143.085 1345.96,144.252 1346.5,145.5C 1346,146.521 1345.33,146.688 1344.5,146C 1339.67,142.419 1334.67,139.085 1329.5,136C 1327.84,134.512 1326.84,132.679 1326.5,130.5 Z"/></g>
<g><path style="opacity:1" fill="#ff6367" d="M 1647.5,130.5 C 1653.9,134.455 1660.07,138.788 1666,143.5C 1666.67,144.5 1666.67,145.5 1666,146.5C 1660.17,142.667 1654.33,138.833 1648.5,135C 1647.62,133.644 1647.29,132.144 1647.5,130.5 Z"/></g>
<g><path style="opacity:1" fill="#ff6366" d="M 131.5,139.5 C 138.699,143.188 145.532,147.521 152,152.5C 152.749,153.635 152.583,154.635 151.5,155.5C 145.167,151.333 138.833,147.167 132.5,143C 131.663,141.989 131.33,140.822 131.5,139.5 Z"/></g>
<g><path style="opacity:1" fill="#ff6266" d="M 322.5,138.5 C 328.999,142.811 335.665,146.978 342.5,151C 343.554,152.388 343.72,153.888 343,155.5C 336.586,151.043 330.086,146.709 323.5,142.5C 322.571,141.311 322.238,139.978 322.5,138.5 Z"/></g>
<g><path style="opacity:1" fill="#ff5f63" d="M 421.5,134.5 C 428.016,138.838 434.683,143.005 441.5,147C 442.731,148.183 442.731,149.349 441.5,150.5C 434.998,146.75 428.665,142.75 422.5,138.5C 421.571,137.311 421.238,135.978 421.5,134.5 Z"/></g>
<g><path style="opacity:1" fill="#ff6265" d="M 1157.5,140.5 C 1158.87,140.343 1160.21,140.51 1161.5,141C 1167,144.916 1172.66,148.582 1178.5,152C 1180.04,153.11 1180.7,154.61 1180.5,156.5C 1173.1,152.295 1165.76,147.795 1158.5,143C 1157.75,142.329 1157.41,141.496 1157.5,140.5 Z"/></g>
<g><path style="opacity:1" fill="#ff6366" d="M 240.5,134.5 C 247.066,137.79 253.399,141.624 259.5,146C 261.439,146.908 262.439,148.408 262.5,150.5C 261.448,150.649 260.448,150.483 259.5,150C 253.844,145.504 247.844,141.504 241.5,138C 240.663,136.989 240.33,135.822 240.5,134.5 Z"/></g>
<g><path style="opacity:1" fill="#ff6263" d="M 622.5,142.5 C 629.11,145.808 635.444,149.642 641.5,154C 643.421,155.241 643.754,156.741 642.5,158.5C 636.167,154.333 629.833,150.167 623.5,146C 622.663,144.989 622.33,143.822 622.5,142.5 Z"/></g>
<g><path style="opacity:1" fill="#ff6364" d="M 622.5,134.5 C 629.279,138.395 635.945,142.561 642.5,147C 643.554,148.388 643.72,149.888 643,151.5C 637.423,147.294 631.59,143.46 625.5,140C 623.393,138.736 622.393,136.903 622.5,134.5 Z"/></g>
<g><path style="opacity:1" fill="#ff6064" d="M 898.5,140.5 C 904.55,144.947 910.717,149.28 917,153.5C 917.749,154.635 917.583,155.635 916.5,156.5C 912.508,153.169 908.175,150.336 903.5,148C 900.8,146.143 899.134,143.643 898.5,140.5 Z"/></g>
<g><path style="opacity:1" fill="#ff6466" d="M 1330.5,142.5 C 1330.74,141.903 1331.24,141.57 1332,141.5C 1337.25,145.541 1342.75,149.208 1348.5,152.5C 1350.14,153.705 1350.47,155.038 1349.5,156.5C 1342.17,153.02 1335.84,148.354 1330.5,142.5 Z"/></g>
<g><path style="opacity:1" fill="#ff6468" d="M 1651.5,142.5 C 1651.9,141.475 1652.56,141.308 1653.5,142C 1659.09,145.71 1664.59,149.543 1670,153.5C 1670.75,154.635 1670.58,155.635 1669.5,156.5C 1664.3,152.803 1658.97,149.303 1653.5,146C 1652.92,144.698 1652.25,143.531 1651.5,142.5 Z"/></g>
<g><path style="opacity:1" fill="#ff6164" d="M 1153.5,145.5 C 1154.87,145.343 1156.21,145.51 1157.5,146C 1164.22,150.021 1170.56,154.521 1176.5,159.5C 1175.28,160.614 1173.94,160.781 1172.5,160C 1166.5,156 1160.5,152 1154.5,148C 1153.75,147.329 1153.41,146.496 1153.5,145.5 Z"/></g>
<g><path style="opacity:1" fill="#ff6468" d="M 521.5,145.5 C 528.399,148.956 535.065,152.956 541.5,157.5C 542.833,158.833 542.833,160.167 541.5,161.5C 535.509,156.836 529.176,152.67 522.5,149C 521.663,147.989 521.33,146.822 521.5,145.5 Z"/></g>
<g><path style="opacity:1" fill="#ff6165" d="M 238.5,148.5 C 245.11,151.808 251.444,155.642 257.5,160C 259.439,160.908 260.439,162.408 260.5,164.5C 253.442,161.467 246.776,157.634 240.5,153C 238.963,151.89 238.297,150.39 238.5,148.5 Z"/></g>
<g><path style="opacity:1" fill="#ff6062" d="M 420.5,149.5 C 427.279,153.395 433.945,157.561 440.5,162C 441.554,163.388 441.72,164.888 441,166.5C 434.636,161.971 428.136,157.637 421.5,153.5C 420.571,152.311 420.238,150.978 420.5,149.5 Z"/></g>
<g><path style="opacity:1" fill="#ff6266" d="M 131.5,147.5 C 138.275,151.057 144.942,154.89 151.5,159C 152.337,160.011 152.67,161.178 152.5,162.5C 146.107,159.799 140.107,156.299 134.5,152C 132.561,151.092 131.561,149.592 131.5,147.5 Z"/></g>
<g><path style="opacity:1" fill="#ff6264" d="M 239.5,141.5 C 246.702,145.341 253.702,149.674 260.5,154.5C 261.614,155.723 261.781,157.056 261,158.5C 254.252,153.876 247.419,149.376 240.5,145C 239.663,143.989 239.33,142.822 239.5,141.5 Z"/></g>
<g><path style="opacity:1" fill="#ff5e63" d="M 421.5,141.5 C 427.965,146.238 434.632,150.738 441.5,155C 442.731,156.183 442.731,157.349 441.5,158.5C 435.366,154.864 429.366,151.031 423.5,147C 421.845,145.556 421.178,143.722 421.5,141.5 Z"/></g>
<g><path style="opacity:1" fill="#ff6367" d="M 724.5,149.5 C 730.999,153.811 737.665,157.978 744.5,162C 745.554,163.388 745.72,164.888 745,166.5C 738.586,162.043 732.086,157.709 725.5,153.5C 724.571,152.311 724.238,150.978 724.5,149.5 Z"/></g>
<g><path style="opacity:1" fill="#ff6568" d="M 724.5,142.5 C 731.367,146.005 738.033,150.005 744.5,154.5C 745.833,155.833 745.833,157.167 744.5,158.5C 738.167,154.333 731.833,150.167 725.5,146C 724.663,144.989 724.33,143.822 724.5,142.5 Z"/></g>
<g><path style="opacity:1" fill="#ff6465" d="M 622.5,150.5 C 629.399,153.956 636.065,157.956 642.5,162.5C 643.614,163.723 643.781,165.056 643,166.5C 637.585,162.875 632.085,159.375 626.5,156C 624.254,154.743 622.921,152.91 622.5,150.5 Z"/></g>
<g><path style="opacity:1" fill="#ff6063" d="M 1142.5,153.5 C 1143.87,153.343 1145.21,153.51 1146.5,154C 1152.83,158.333 1159.17,162.667 1165.5,167C 1164.41,168.365 1163.07,168.699 1161.5,168C 1156,164.084 1150.34,160.418 1144.5,157C 1143.18,156.184 1142.51,155.017 1142.5,153.5 Z"/></g>
<g><path style="opacity:1" fill="#ff7c83" d="M 1386.5,154.5 C 1394.32,153.508 1402.32,153.174 1410.5,153.5C 1410.5,155.167 1410.5,156.833 1410.5,158.5C 1409.57,157.432 1409.23,156.099 1409.5,154.5C 1401.83,154.5 1394.17,154.5 1386.5,154.5 Z"/></g>
<g><path style="opacity:1" fill="#ff6469" d="M 1336.5,152.5 C 1342.31,155.907 1347.98,159.574 1353.5,163.5C 1355.12,164.869 1355.62,166.536 1355,168.5C 1350.09,164.629 1344.93,161.129 1339.5,158C 1337.39,156.736 1336.39,154.903 1336.5,152.5 Z"/></g>
<g><path style="opacity:1" fill="#ff6064" d="M 323.5,147.5 C 331.064,150.774 337.731,155.274 343.5,161C 343.167,161.5 342.833,162 342.5,162.5C 336.366,158.864 330.366,155.031 324.5,151C 323.663,149.989 323.33,148.822 323.5,147.5 Z"/></g>
<g><path style="opacity:1" fill="#ff6064" d="M 903.5,153.5 C 903.897,152.475 904.563,152.308 905.5,153C 910.328,156.581 915.328,159.915 920.5,163C 922.332,164.489 923.165,166.322 923,168.5C 915.761,164.316 909.261,159.316 903.5,153.5 Z"/></g>
<g><path style="opacity:1" fill="#ff6165" d="M 1148.5,149.5 C 1156.65,153.31 1164.32,157.977 1171.5,163.5C 1169.45,164.663 1167.45,164.496 1165.5,163C 1160.67,159.419 1155.67,156.085 1150.5,153C 1149.18,152.184 1148.51,151.017 1148.5,149.5 Z"/></g>
<g><path style="opacity:1" fill="#ff6568" d="M 1656.5,152.5 C 1662.26,155.748 1667.93,159.248 1673.5,163C 1675.33,164.489 1676.17,166.322 1676,168.5C 1670.17,164.667 1664.33,160.833 1658.5,157C 1657.42,155.67 1656.75,154.17 1656.5,152.5 Z"/></g>
<g><path style="opacity:1" fill="#ff6467" d="M 235.5,154.5 C 242.569,158.37 249.569,162.536 256.5,167C 258.784,168.363 258.951,169.863 257,171.5C 250.304,166.638 243.47,161.971 236.5,157.5C 235.614,156.675 235.281,155.675 235.5,154.5 Z"/></g>
<g><path style="opacity:1" fill="#ff6165" d="M 521.5,152.5 C 527.111,155.978 532.777,159.478 538.5,163C 540.746,164.257 542.079,166.09 542.5,168.5C 536.435,165.294 530.435,161.794 524.5,158C 522.393,156.736 521.393,154.903 521.5,152.5 Z"/></g>
<g><path style="opacity:1" fill="#ff6368" d="M 1493.5,146.5 C 1499.95,150.228 1506.28,154.228 1512.5,158.5C 1514.12,159.869 1514.62,161.536 1514,163.5C 1507.92,159.21 1501.75,155.043 1495.5,151C 1494.42,149.67 1493.75,148.17 1493.5,146.5 Z"/></g>
<g><path style="opacity:1" fill="#ffb7df" d="M 416.5,150.5 C 416.917,154.817 416.25,158.817 414.5,162.5C 414.851,158.316 415.518,154.316 416.5,150.5 Z"/></g>
<g><path style="opacity:1" fill="#ff6666" d="M 622.5,157.5 C 629.279,161.395 635.945,165.561 642.5,170C 643.554,171.388 643.72,172.888 643,174.5C 636.586,170.043 630.086,165.709 623.5,161.5C 622.571,160.311 622.238,158.978 622.5,157.5 Z"/></g>
<g><path style="opacity:1" fill="#ff6468" d="M 1495.5,155.5 C 1502.28,159.395 1508.95,163.561 1515.5,168C 1516.73,169.183 1516.73,170.349 1515.5,171.5C 1509.37,167.864 1503.37,164.031 1497.5,160C 1495.96,158.89 1495.3,157.39 1495.5,155.5 Z"/></g>
<g><path style="opacity:1" fill="#ff6164" d="M 131.5,154.5 C 137.999,158.811 144.665,162.978 151.5,167C 152.731,168.183 152.731,169.349 151.5,170.5C 145.167,166.5 138.833,162.5 132.5,158.5C 131.571,157.311 131.238,155.978 131.5,154.5 Z"/></g>
<g><path style="opacity:1" fill="#ff6366" d="M 521.5,160.5 C 528.11,163.808 534.444,167.642 540.5,172C 542.421,173.241 542.754,174.741 541.5,176.5C 535.669,172.417 529.669,168.584 523.5,165C 521.963,163.89 521.297,162.39 521.5,160.5 Z"/></g>
<g><path style="opacity:1" fill="#ff6065" d="M 233.5,160.5 C 240.11,163.808 246.444,167.642 252.5,172C 254.439,172.908 255.439,174.408 255.5,176.5C 248.442,173.467 241.776,169.634 235.5,165C 233.963,163.89 233.297,162.39 233.5,160.5 Z"/></g>
<g><path style="opacity:1" fill="#ff6163" d="M 1094.5,162.5 C 1095.95,161.387 1097.61,161.22 1099.5,162C 1104.89,165.02 1109.89,168.52 1114.5,172.5C 1113.28,173.614 1111.94,173.781 1110.5,173C 1105.31,169.241 1099.98,165.741 1094.5,162.5 Z"/></g>
<g><path style="opacity:1" fill="#ff6064" d="M 724.5,157.5 C 731.279,161.395 737.945,165.561 744.5,170C 745.731,171.183 745.731,172.349 744.5,173.5C 738.366,169.864 732.366,166.031 726.5,162C 724.963,160.89 724.297,159.39 724.5,157.5 Z"/></g>
<g><path style="opacity:1" fill="#ff6669" d="M 131.5,162.5 C 136.691,164.693 141.358,167.693 145.5,171.5C 143.45,172.663 141.45,172.496 139.5,171C 137,169.167 134.5,167.333 132,165.5C 131.517,164.552 131.351,163.552 131.5,162.5 Z"/></g>
<g><path style="opacity:1" fill="#ff6063" d="M 325.5,155.5 C 331.302,159.572 337.302,163.406 343.5,167C 344.554,168.388 344.72,169.888 344,171.5C 338.167,167.667 332.333,163.833 326.5,160C 325.62,158.644 325.286,157.144 325.5,155.5 Z"/></g>
<g><path style="opacity:1" fill="#ff5f63" d="M 417.5,163.5 C 424.731,167.122 431.731,171.289 438.5,176C 439.731,177.183 439.731,178.349 438.5,179.5C 431.665,175.584 424.998,171.417 418.5,167C 417.663,165.989 417.33,164.822 417.5,163.5 Z"/></g>
<g><path style="opacity:1" fill="#ff6368" d="M 419.5,157.5 C 421.308,157.491 422.975,157.991 424.5,159C 429.662,162.749 434.996,166.249 440.5,169.5C 441.833,170.833 441.833,172.167 440.5,173.5C 434.669,169.417 428.669,165.584 422.5,162C 420.859,160.871 419.859,159.371 419.5,157.5 Z"/></g>
<g><path style="opacity:1" fill="#ff6669" d="M 1088.5,162.5 C 1093.45,164.98 1098.12,167.98 1102.5,171.5C 1100.93,172.631 1099.26,172.798 1097.5,172C 1094.97,169.971 1092.3,168.138 1089.5,166.5C 1088.57,165.311 1088.24,163.978 1088.5,162.5 Z"/></g>
<g><path style="opacity:1" fill="#ff686b" d="M 1414.5,157.5 C 1422.11,160.975 1429.11,165.475 1435.5,171C 1435.33,171.5 1435.17,172 1435,172.5C 1428.42,168.458 1421.92,164.291 1415.5,160C 1414.75,159.329 1414.41,158.496 1414.5,157.5 Z"/></g>
<g><path style="opacity:1" fill="#ff6368" d="M 1495.5,163.5 C 1502.73,167.384 1509.73,171.717 1516.5,176.5C 1517.61,177.723 1517.78,179.056 1517,180.5C 1510.42,176.458 1503.92,172.291 1497.5,168C 1495.96,166.89 1495.3,165.39 1495.5,163.5 Z"/></g>
<g><path style="opacity:1" fill="#ff6568" d="M 825.5,166.5 C 827.288,165.378 829.288,165.211 831.5,166C 837.176,169.504 842.843,173.004 848.5,176.5C 846.579,177.641 844.579,177.808 842.5,177C 837.112,172.977 831.446,169.477 825.5,166.5 Z"/></g>
<g><path style="opacity:1" fill="#ff6164" d="M 837.5,166.5 C 839.288,165.378 841.288,165.211 843.5,166C 848.969,169.303 854.302,172.803 859.5,176.5C 857.926,177.631 856.259,177.798 854.5,177C 849.112,172.977 843.446,169.477 837.5,166.5 Z"/></g>
<g><path style="opacity:1" fill="#ff5e61" d="M 849.5,166.5 C 850.946,165.387 852.613,165.22 854.5,166C 858.589,168.127 862.423,170.627 866,173.5C 866.667,174.5 866.667,175.5 866,176.5C 860.614,172.941 855.114,169.608 849.5,166.5 Z"/></g>
<g><path style="opacity:1" fill="#ff686b" d="M 908.5,163.5 C 913.486,165.994 918.153,168.994 922.5,172.5C 920.45,173.663 918.45,173.496 916.5,172C 914.333,170.5 912.167,169 910,167.5C 909.209,166.255 908.709,164.922 908.5,163.5 Z"/></g>
<g><path style="opacity:1" fill="#ff6264" d="M 1269.5,166.5 C 1271.29,165.378 1273.29,165.211 1275.5,166C 1280.97,169.303 1286.3,172.803 1291.5,176.5C 1290.28,177.614 1288.94,177.781 1287.5,177C 1281.61,173.224 1275.61,169.724 1269.5,166.5 Z"/></g>
<g><path style="opacity:1" fill="#ff6266" d="M 1281.5,166.5 C 1283.29,165.378 1285.29,165.211 1287.5,166C 1291.95,168.542 1295.95,171.542 1299.5,175C 1299.17,175.5 1298.83,176 1298.5,176.5C 1292.94,172.891 1287.28,169.558 1281.5,166.5 Z"/></g>
<g><path style="opacity:1" fill="#ff6568" d="M 1293.5,166.5 C 1294.95,165.387 1296.61,165.22 1298.5,166C 1301.97,167.97 1305.3,170.136 1308.5,172.5C 1306.93,173.631 1305.26,173.798 1303.5,173C 1300.31,170.574 1296.98,168.407 1293.5,166.5 Z"/></g>
<g><path style="opacity:1" fill="#ff5f63" d="M 1602.5,166.5 C 1603.95,165.387 1605.61,165.22 1607.5,166C 1610.83,168 1614.17,170 1617.5,172C 1619.42,173.241 1619.75,174.741 1618.5,176.5C 1613.14,173.156 1607.81,169.822 1602.5,166.5 Z"/></g>
<g><path style="opacity:1" fill="#ff6367" d="M 1661.5,163.5 C 1666.48,165.991 1671.14,168.991 1675.5,172.5C 1673.45,173.663 1671.45,173.496 1669.5,172C 1667.33,170.5 1665.17,169 1663,167.5C 1662.21,166.255 1661.71,164.922 1661.5,163.5 Z"/></g>
<g><path style="opacity:1" fill="#ff6163" d="M 229.5,166.5 C 231.308,166.491 232.975,166.991 234.5,168C 239.328,171.581 244.328,174.915 249.5,178C 251.439,178.908 252.439,180.408 252.5,182.5C 245.442,179.467 238.776,175.634 232.5,171C 230.561,170.092 229.561,168.592 229.5,166.5 Z"/></g>
<g><path style="opacity:1" fill="#ff6565" d="M 622.5,165.5 C 629.699,169.188 636.532,173.521 643,178.5C 643.667,179.833 643.667,181.167 643,182.5C 636.92,178.21 630.753,174.043 624.5,170C 622.963,168.89 622.297,167.39 622.5,165.5 Z"/></g>
<g><path style="opacity:1" fill="#ff656a" d="M 1149.5,165.5 C 1150.72,164.535 1152.05,164.702 1153.5,166C 1155.87,167.844 1158.21,169.678 1160.5,171.5C 1159.28,172.614 1157.94,172.781 1156.5,172C 1153.83,170.138 1151.5,167.972 1149.5,165.5 Z"/></g>
<g><path style="opacity:1" fill="#ff6265" d="M 1258.5,166.5 C 1259.95,165.387 1261.61,165.22 1263.5,166C 1269.17,169.5 1274.83,173 1280.5,176.5C 1278.93,177.631 1277.26,177.798 1275.5,177C 1269.95,173.275 1264.28,169.775 1258.5,166.5 Z"/></g>
<g><path style="opacity:1" fill="#ff6669" d="M 724.5,165.5 C 728.441,167.14 732.108,169.306 735.5,172C 731.207,173.202 727.707,172.035 725,168.5C 724.517,167.552 724.351,166.552 724.5,165.5 Z"/></g>
<g><path style="opacity:1" fill="#ff6369" d="M 861.5,166.5 C 862.946,165.387 864.613,165.22 866.5,166C 869.891,167.689 872.891,169.856 875.5,172.5C 874.277,173.614 872.944,173.781 871.5,173C 868.309,170.574 864.975,168.407 861.5,166.5 Z"/></g>
<g><path style="opacity:1" fill="#ff666a" d="M 1341.5,163.5 C 1346.14,166.489 1350.81,169.489 1355.5,172.5C 1350.6,172.906 1346.27,171.239 1342.5,167.5C 1341.75,166.264 1341.42,164.93 1341.5,163.5 Z"/></g>
<g><path style="opacity:1" fill="#ff6267" d="M 1613.5,166.5 C 1615.29,165.378 1617.29,165.211 1619.5,166C 1622.5,168.167 1625.5,170.333 1628.5,172.5C 1627.28,173.614 1625.94,173.781 1624.5,173C 1620.93,170.579 1617.26,168.413 1613.5,166.5 Z"/></g>
<g><path style="opacity:1" fill="#ff686d" d="M 521.5,168.5 C 523.824,169.33 525.824,170.663 527.5,172.5C 523.699,174.046 521.699,172.713 521.5,168.5 Z"/></g>
<g><path style="opacity:1" fill="#ff7477" d="M 1417.5,165.5 C 1421.6,167.749 1425.6,170.249 1429.5,173C 1427.45,173.325 1425.45,172.991 1423.5,172C 1420.59,170.594 1418.59,168.428 1417.5,165.5 Z"/></g>
<g><path style="opacity:1" fill="#ff6367" d="M 1578.5,166.5 C 1580.29,165.378 1582.29,165.211 1584.5,166C 1590,169.251 1595.34,172.751 1600.5,176.5C 1598.93,177.631 1597.26,177.798 1595.5,177C 1590.11,172.977 1584.45,169.477 1578.5,166.5 Z"/></g>
<g><path style="opacity:1" fill="#ffadb1" d="M 131.5,170.5 C 133.346,170.222 134.68,170.889 135.5,172.5C 133.167,173.941 131.834,173.275 131.5,170.5 Z"/></g>
<g><path style="opacity:1" fill="#ff5f63" d="M 226.5,171.5 C 233.11,174.808 239.444,178.642 245.5,183C 247.439,183.908 248.439,185.408 248.5,187.5C 241.269,183.878 234.269,179.711 227.5,175C 226.663,173.989 226.33,172.822 226.5,171.5 Z"/></g>
<g><path style="opacity:1" fill="#ff6064" d="M 415.5,169.5 C 422.11,172.808 428.444,176.642 434.5,181C 436.439,181.908 437.439,183.408 437.5,185.5C 436.448,185.649 435.448,185.483 434.5,185C 429.004,181.084 423.337,177.418 417.5,174C 415.963,172.89 415.297,171.39 415.5,169.5 Z"/></g>
<g><path style="opacity:1" fill="#ffbfc6" d="M 1088.5,170.5 C 1089.5,170.5 1090.5,170.5 1091.5,170.5C 1090.75,174.31 1089.75,174.31 1088.5,170.5 Z"/></g>
<g><path style="opacity:1" fill="#ff6267" d="M 1590.5,166.5 C 1592.29,165.378 1594.29,165.211 1596.5,166C 1601.97,169.303 1607.3,172.803 1612.5,176.5C 1610.93,177.631 1609.26,177.798 1607.5,177C 1601.93,173.248 1596.26,169.748 1590.5,166.5 Z"/></g>
<g><path style="opacity:1" fill="#ff6267" d="M 820.5,167.5 C 827.608,171.223 834.608,175.223 841.5,179.5C 842.386,180.325 842.719,181.325 842.5,182.5C 838.286,181.059 834.286,179.059 830.5,176.5C 829.614,175.675 829.281,174.675 829.5,173.5C 826.138,173.93 823.305,172.93 821,170.5C 820.517,169.552 820.351,168.552 820.5,167.5 Z"/></g>
<g><path style="opacity:1" fill="#ff6265" d="M 1252.5,167.5 C 1254.31,167.491 1255.98,167.991 1257.5,169C 1261.9,172.394 1266.56,175.394 1271.5,178C 1273.44,178.908 1274.44,180.408 1274.5,182.5C 1269.39,181.113 1265.06,178.446 1261.5,174.5C 1258.56,173.885 1255.9,172.718 1253.5,171C 1252.66,169.989 1252.33,168.822 1252.5,167.5 Z"/></g>
<g><path style="opacity:1" fill="#ff6465" d="M 1572.5,167.5 C 1575.02,167.755 1577.35,168.589 1579.5,170C 1583.9,173.394 1588.56,176.394 1593.5,179C 1594.34,180.011 1594.67,181.178 1594.5,182.5C 1593.45,182.649 1592.45,182.483 1591.5,182C 1585.59,177.889 1579.59,174.055 1573.5,170.5C 1572.61,169.675 1572.28,168.675 1572.5,167.5 Z"/></g>
<g><path style="opacity:1" fill="#ff686f" d="M 1104.5,173.5 C 1107.8,173.632 1109.46,175.298 1109.5,178.5C 1106.17,178.5 1104.5,176.833 1104.5,173.5 Z"/></g>
<g><path style="opacity:1" fill="#ff6165" d="M 413.5,175.5 C 421.188,180.008 428.522,185.008 435.5,190.5C 433.813,191.568 432.146,191.401 430.5,190C 424.833,186.333 419.167,182.667 413.5,179C 412.316,177.855 412.316,176.688 413.5,175.5 Z"/></g>
<g><path style="opacity:1" fill="#ff6267" d="M 1494.5,170.5 C 1501.11,173.808 1507.44,177.642 1513.5,182C 1515.44,182.908 1516.44,184.408 1516.5,186.5C 1509.02,182.835 1501.85,178.502 1495,173.5C 1494.52,172.552 1494.35,171.552 1494.5,170.5 Z"/></g>
<g><path style="opacity:1" fill="#ff6165" d="M 222.5,176.5 C 230.265,181.083 237.932,185.916 245.5,191C 244.892,191.87 244.059,192.37 243,192.5C 236.598,189.049 230.431,185.215 224.5,181C 222.963,179.89 222.297,178.39 222.5,176.5 Z"/></g>
<g><path style="opacity:1" fill="#ff6363" d="M 622.5,173.5 C 629.699,177.188 636.532,181.521 643,186.5C 643.749,187.635 643.583,188.635 642.5,189.5C 636.167,185.333 629.833,181.167 623.5,177C 622.663,175.989 622.33,174.822 622.5,173.5 Z"/></g>
<g><path style="opacity:1" fill="#ff5e66" d="M 741.5,176.5 C 744.752,177.046 745.752,178.712 744.5,181.5C 742.244,180.579 741.244,178.912 741.5,176.5 Z"/></g>
<g><path style="opacity:1" fill="#ff825e" d="M 1625.5,176.5 C 1624.53,184.414 1624.2,192.414 1624.5,200.5C 1623.83,196.681 1623.5,192.681 1623.5,188.5C 1623.51,184.107 1624.18,180.107 1625.5,176.5 Z"/></g>
<g><path style="opacity:1" fill="#ff6366" d="M 409.5,181.5 C 416.558,184.533 423.224,188.366 429.5,193C 433.433,196.742 432.766,197.742 427.5,196C 422.004,192.084 416.337,188.418 410.5,185C 409.663,183.989 409.33,182.822 409.5,181.5 Z"/></g>
<g><path style="opacity:1" fill="#ff7a7f" d="M 537.5,179.5 C 538.922,179.709 540.255,180.209 541.5,181C 542.453,182.955 543.787,184.622 545.5,186C 550.008,188.753 554.341,191.753 558.5,195C 557.092,195.315 555.759,194.982 554.5,194C 549.772,190.274 544.772,186.941 539.5,184C 537.963,182.89 537.297,181.39 537.5,179.5 Z"/></g>
<g><path style="opacity:1" fill="#ff6062" d="M 622.5,181.5 C 629.399,184.956 636.065,188.956 642.5,193.5C 643.614,194.723 643.781,196.056 643,197.5C 636.586,193.043 630.086,188.709 623.5,184.5C 622.614,183.675 622.281,182.675 622.5,181.5 Z"/></g>
<g><path style="opacity:1" fill="#ff5f64" d="M 1492.5,177.5 C 1500.06,180.618 1507.06,184.785 1513.5,190C 1514.73,191.183 1514.73,192.349 1513.5,193.5C 1506.83,189.167 1500.17,184.833 1493.5,180.5C 1492.61,179.675 1492.28,178.675 1492.5,177.5 Z"/></g>
<g><path style="opacity:1" fill="#ff6266" d="M 213.5,185.5 C 220.948,190.064 228.281,194.897 235.5,200C 234.975,200.692 234.308,201.192 233.5,201.5C 226.665,197.584 219.998,193.417 213.5,189C 212.316,187.855 212.316,186.688 213.5,185.5 Z"/></g>
<g><path style="opacity:1" fill="#ff6365" d="M 930.5,185.5 C 937.11,188.808 943.444,192.642 949.5,197C 951.439,197.908 952.439,199.408 952.5,201.5C 945.269,197.878 938.269,193.711 931.5,189C 930.663,187.989 930.33,186.822 930.5,185.5 Z"/></g>
<g><path style="opacity:1" fill="#ff6267" d="M 1363.5,185.5 C 1370.28,189.395 1376.95,193.561 1383.5,198C 1384.73,199.183 1384.73,200.349 1383.5,201.5C 1377.37,197.864 1371.37,194.031 1365.5,190C 1363.96,188.89 1363.3,187.39 1363.5,185.5 Z"/></g>
<g><path style="opacity:1" fill="#ff6568" d="M 1683.5,185.5 C 1690.11,188.808 1696.44,192.642 1702.5,197C 1704.44,197.908 1705.44,199.408 1705.5,201.5C 1698.27,197.878 1691.27,193.711 1684.5,189C 1683.66,187.989 1683.33,186.822 1683.5,185.5 Z"/></g>
<g><path style="opacity:1" fill="#ff676b" d="M 537.5,186.5 C 544.73,190.384 551.73,194.717 558.5,199.5C 559.614,200.723 559.781,202.056 559,203.5C 552.082,199.292 545.249,194.958 538.5,190.5C 537.571,189.311 537.238,187.978 537.5,186.5 Z"/></g>
<g><path style="opacity:1" fill="#ff6367" d="M 217.5,181.5 C 218.552,181.351 219.552,181.517 220.5,182C 225.996,185.916 231.663,189.582 237.5,193C 239.255,193.72 240.089,194.887 240,196.5C 239.282,197.451 238.449,197.617 237.5,197C 230.328,192.581 223.328,187.915 216.5,183C 217.056,182.617 217.389,182.117 217.5,181.5 Z"/></g>
<g><path style="opacity:1" fill="#ff6266" d="M 405.5,186.5 C 406.552,186.351 407.552,186.517 408.5,187C 414.698,191.363 421.031,195.53 427.5,199.5C 428.386,200.325 428.719,201.325 428.5,202.5C 421.442,199.467 414.776,195.634 408.5,191C 406.561,190.092 405.561,188.592 405.5,186.5 Z"/></g>
<g><path style="opacity:1" fill="#ff5e62" d="M 761.5,197.5 C 761.672,198.492 761.338,199.158 760.5,199.5C 753.71,195.528 747.377,191.028 741.5,186C 742.577,184.457 743.911,184.457 745.5,186C 751.077,189.61 756.41,193.443 761.5,197.5 Z"/></g>
<g><path style="opacity:1" fill="#ff666a" d="M 1104.5,181.5 C 1111.6,185.413 1118.6,189.58 1125.5,194C 1126.34,195.011 1126.67,196.178 1126.5,197.5C 1119.27,193.878 1112.27,189.711 1105.5,185C 1104.66,183.989 1104.33,182.822 1104.5,181.5 Z"/></g>
<g><path style="opacity:1" fill="#ff6163" d="M 1489.5,182.5 C 1496.28,186.395 1502.95,190.561 1509.5,195C 1511.42,196.241 1511.75,197.741 1510.5,199.5C 1504.17,195.333 1497.83,191.167 1491.5,187C 1489.96,185.89 1489.3,184.39 1489.5,182.5 Z"/></g>
<g><path style="opacity:1" fill="#ff6166" d="M 829.5,187.5 C 836.016,191.838 842.683,196.005 849.5,200C 850.554,201.388 850.72,202.888 850,204.5C 843.586,200.043 837.086,195.709 830.5,191.5C 829.571,190.311 829.238,188.978 829.5,187.5 Z"/></g>
<g><path style="opacity:1" fill="#ff6165" d="M 1176.5,182.5 C 1183.11,185.808 1189.44,189.642 1195.5,194C 1197.42,195.241 1197.75,196.741 1196.5,198.5C 1190.17,194.333 1183.83,190.167 1177.5,186C 1176.66,184.989 1176.33,183.822 1176.5,182.5 Z"/></g>
<g><path style="opacity:1" fill="#ff6365" d="M 1261.5,187.5 C 1268.28,191.395 1274.95,195.561 1281.5,200C 1282.34,201.011 1282.67,202.178 1282.5,203.5C 1275.63,199.995 1268.97,195.995 1262.5,191.5C 1261.57,190.311 1261.24,188.978 1261.5,187.5 Z"/></g>
<g><path style="opacity:1" fill="#ff6368" d="M 1581.5,187.5 C 1588.6,191.413 1595.6,195.58 1602.5,200C 1603.55,201.388 1603.72,202.888 1603,204.5C 1595.91,200.373 1589.08,195.873 1582.5,191C 1581.66,189.989 1581.33,188.822 1581.5,187.5 Z"/></g>
<g><path style="opacity:1" fill="#ff6367" d="M 829.5,180.5 C 837.322,184.318 844.322,189.318 850.5,195.5C 849.998,196.521 849.332,196.688 848.5,196C 842.5,192 836.5,188 830.5,184C 829.663,182.989 829.33,181.822 829.5,180.5 Z"/></g>
<g><path style="opacity:1" fill="#ff666b" d="M 1581.5,179.5 C 1589.66,183.655 1596.99,188.988 1603.5,195.5C 1603,196.521 1602.33,196.688 1601.5,196C 1595.17,191.833 1588.83,187.667 1582.5,183.5C 1581.57,182.311 1581.24,180.978 1581.5,179.5 Z"/></g>
<g><path style="opacity:1" fill="#ff6164" d="M 1176.5,190.5 C 1183.4,193.956 1190.07,197.956 1196.5,202.5C 1197.61,203.723 1197.78,205.056 1197,206.5C 1190.75,201.959 1184.25,197.792 1177.5,194C 1176.66,192.989 1176.33,191.822 1176.5,190.5 Z"/></g>
<g><path style="opacity:1" fill="#ff6265" d="M 1261.5,180.5 C 1269.12,184.267 1276.12,189.1 1282.5,195C 1281.5,195.667 1280.5,195.667 1279.5,195C 1274.83,192 1270.17,189 1265.5,186C 1263.25,184.743 1261.92,182.91 1261.5,180.5 Z"/></g>
<g><path style="opacity:1" fill="#ff6266" d="M 207.5,189.5 C 214.11,192.808 220.444,196.642 226.5,201C 228.255,201.72 229.089,202.887 229,204.5C 228.282,205.451 227.449,205.617 226.5,205C 219.484,200.826 212.817,196.159 206.5,191C 207.056,190.617 207.389,190.117 207.5,189.5 Z"/></g>
<g><path style="opacity:1" fill="#ff5f63" d="M 401.5,191.5 C 408.731,195.122 415.731,199.289 422.5,204C 423.784,205.297 423.617,206.464 422,207.5C 415.755,202.959 409.255,198.792 402.5,195C 401.663,193.989 401.33,192.822 401.5,191.5 Z"/></g>
<g><path style="opacity:1" fill="#ff6167" d="M 741.5,191.5 C 748.149,195.807 754.816,200.141 761.5,204.5C 762.614,205.723 762.781,207.056 762,208.5C 755.242,204.539 748.742,200.205 742.5,195.5C 741.571,194.311 741.238,192.978 741.5,191.5 Z"/></g>
<g><path style="opacity:1" fill="#ff6064" d="M 201.5,193.5 C 209.031,197.364 216.031,202.03 222.5,207.5C 221.635,208.583 220.635,208.749 219.5,208C 213.103,203.273 206.436,198.94 199.5,195C 200.416,194.722 201.082,194.222 201.5,193.5 Z"/></g>
<g><path style="opacity:1" fill="#ff6667" d="M 930.5,192.5 C 937.131,196.781 943.798,201.114 950.5,205.5C 951.386,206.325 951.719,207.325 951.5,208.5C 944.601,205.044 937.935,201.044 931.5,196.5C 930.571,195.311 930.238,193.978 930.5,192.5 Z"/></g>
<g><path style="opacity:1" fill="#ff6064" d="M 1481.5,193.5 C 1483.31,193.491 1484.98,193.991 1486.5,195C 1492.66,199.004 1498.66,203.171 1504.5,207.5C 1503.28,208.614 1501.94,208.781 1500.5,208C 1494.83,204.333 1489.17,200.667 1483.5,197C 1482.18,196.184 1481.51,195.017 1481.5,193.5 Z"/></g>
<g><path style="opacity:1" fill="#ff6465" d="M 537.5,194.5 C 544.394,198.048 551.061,202.048 557.5,206.5C 558.833,207.833 558.833,209.167 557.5,210.5C 551.167,206.333 544.833,202.167 538.5,198C 537.663,196.989 537.33,195.822 537.5,194.5 Z"/></g>
<g><path style="opacity:1" fill="#ff6366" d="M 395.5,195.5 C 396.552,195.351 397.552,195.517 398.5,196C 404.698,200.363 411.031,204.53 417.5,208.5C 418.44,211.052 417.44,211.886 414.5,211C 408.674,206.587 402.674,202.42 396.5,198.5C 395.614,197.675 395.281,196.675 395.5,195.5 Z"/></g>
<g><path style="opacity:1" fill="#ff6265" d="M 1104.5,188.5 C 1110.11,191.978 1115.78,195.478 1121.5,199C 1123.75,200.257 1125.08,202.09 1125.5,204.5C 1118.6,201.044 1111.93,197.044 1105.5,192.5C 1104.57,191.311 1104.24,189.978 1104.5,188.5 Z"/></g>
<g><path style="opacity:1" fill="#ff6266" d="M 1363.5,193.5 C 1370.11,196.808 1376.44,200.642 1382.5,205C 1384.42,206.241 1384.75,207.741 1383.5,209.5C 1377.67,205.417 1371.67,201.584 1365.5,198C 1363.96,196.89 1363.3,195.39 1363.5,193.5 Z"/></g>
<g><path style="opacity:1" fill="#ff6166" d="M 1486.5,188.5 C 1493.73,192.122 1500.73,196.289 1507.5,201C 1508.73,202.183 1508.73,203.349 1507.5,204.5C 1500.97,200.135 1494.3,195.969 1487.5,192C 1486.66,190.989 1486.33,189.822 1486.5,188.5 Z"/></g>
<g><path style="opacity:1" fill="#ff6262" d="M 622.5,188.5 C 630.227,192.413 637.227,197.246 643.5,203C 643.167,203.5 642.833,204 642.5,204.5C 636.366,200.864 630.366,197.031 624.5,193C 622.963,191.89 622.297,190.39 622.5,188.5 Z"/></g>
<g><path style="opacity:1" fill="#ff6365" d="M 1476.5,197.5 C 1477.55,197.351 1478.55,197.517 1479.5,198C 1486,202.338 1492.33,206.838 1498.5,211.5C 1497.64,212.583 1496.64,212.749 1495.5,212C 1489.5,208.333 1483.5,204.667 1477.5,201C 1476.66,199.989 1476.33,198.822 1476.5,197.5 Z"/></g>
<g><path style="opacity:1" fill="#ff9bc1" d="M 761.5,197.5 C 762.776,198.386 762.776,199.386 761.5,200.5C 760.893,200.376 760.56,200.043 760.5,199.5C 761.338,199.158 761.672,198.492 761.5,197.5 Z"/></g>
<g><path style="opacity:1" fill="#ff6366" d="M 1176.5,197.5 C 1183.31,201.405 1189.97,205.572 1196.5,210C 1197.55,211.388 1197.72,212.888 1197,214.5C 1190.59,210.043 1184.09,205.709 1177.5,201.5C 1176.57,200.311 1176.24,198.978 1176.5,197.5 Z"/></g>
<g><path style="opacity:1" fill="#ffc9ca" d="M 173.5,199.5 C 172.737,200.268 171.737,200.768 170.5,201C 141.997,201.83 113.664,201.664 85.5,200.5C 114.858,200.801 144.192,200.468 173.5,199.5 Z"/></g>
<g><path style="opacity:1" fill="#ff6467" d="M 187.5,199.5 C 195.031,203.364 202.031,208.03 208.5,213.5C 207.277,214.614 205.944,214.781 204.5,214C 198.833,210.167 193.167,206.333 187.5,202.5C 186.438,201.575 186.438,200.575 187.5,199.5 Z"/></g>
<g><path style="opacity:1" fill="#ff6264" d="M 622.5,196.5 C 629.394,200.048 636.061,204.048 642.5,208.5C 643.833,209.833 643.833,211.167 642.5,212.5C 636.509,207.836 630.176,203.67 623.5,200C 622.663,198.989 622.33,197.822 622.5,196.5 Z"/></g>
<g><path style="opacity:1" fill="#ff6265" d="M 1261.5,195.5 C 1267.78,199.311 1274.11,203.144 1280.5,207C 1282.42,208.241 1282.75,209.741 1281.5,211.5C 1275.37,207.864 1269.37,204.031 1263.5,200C 1261.96,198.89 1261.3,197.39 1261.5,195.5 Z"/></g>
<g><path style="opacity:1" fill="#ff6668" d="M 1581.5,195.5 C 1588.6,199.413 1595.6,203.58 1602.5,208C 1603.34,209.011 1603.67,210.178 1603.5,211.5C 1596.27,207.878 1589.27,203.711 1582.5,199C 1581.66,197.989 1581.33,196.822 1581.5,195.5 Z"/></g>
<g><path style="opacity:1" fill="#ff6064" d="M 1683.5,193.5 C 1684.55,193.351 1685.55,193.517 1686.5,194C 1691.33,197.581 1696.33,200.915 1701.5,204C 1703.44,204.908 1704.44,206.408 1704.5,208.5C 1699.77,206.304 1695.1,203.804 1690.5,201C 1688.68,199.257 1686.68,197.757 1684.5,196.5C 1683.61,195.675 1683.28,194.675 1683.5,193.5 Z"/></g>
<g><path style="opacity:1" fill="#ff5f63" d="M 177.5,203.5 C 178.946,202.387 180.613,202.22 182.5,203C 188.5,207 194.5,211 200.5,215C 199.407,216.365 198.074,216.699 196.5,216C 190.138,211.823 183.805,207.656 177.5,203.5 Z"/></g>
<g><path style="opacity:1" fill="#ff6365" d="M 930.5,200.5 C 938.209,204.388 945.209,209.221 951.5,215C 951.167,215.5 950.833,216 950.5,216.5C 944.167,212.5 937.833,208.5 931.5,204.5C 930.571,203.311 930.238,201.978 930.5,200.5 Z"/></g>
<g><path style="opacity:1" fill="#ff6466" d="M 1362.5,200.5 C 1369.11,203.808 1375.44,207.642 1381.5,212C 1383.42,213.241 1383.75,214.741 1382.5,216.5C 1376.37,212.864 1370.37,209.031 1364.5,205C 1362.96,203.89 1362.3,202.39 1362.5,200.5 Z"/></g>
<g><path style="opacity:1" fill="#ff6365" d="M 1683.5,200.5 C 1690.28,204.395 1696.95,208.561 1703.5,213C 1704.73,214.183 1704.73,215.349 1703.5,216.5C 1697.17,212.5 1690.83,208.5 1684.5,204.5C 1683.57,203.311 1683.24,201.978 1683.5,200.5 Z"/></g>
<g><path style="opacity:1" fill="#ff6266" d="M 382.5,202.5 C 384.308,202.491 385.975,202.991 387.5,204C 393.5,208 399.5,212 405.5,216C 403.956,217.187 402.289,217.52 400.5,217C 395.442,212.943 390.108,209.276 384.5,206C 383.177,205.184 382.511,204.017 382.5,202.5 Z"/></g>
<g><path style="opacity:1" fill="#ff6063" d="M 537.5,202.5 C 544.996,206.415 551.996,211.082 558.5,216.5C 557.277,217.614 555.944,217.781 554.5,217C 549.672,213.419 544.672,210.085 539.5,207C 537.963,205.89 537.297,204.39 537.5,202.5 Z"/></g>
<g><path style="opacity:1" fill="#ff5f63" d="M 1415.5,202.5 C 1422.48,206.325 1429.15,210.658 1435.5,215.5C 1434.28,216.614 1432.94,216.781 1431.5,216C 1426.5,212.833 1421.5,209.667 1416.5,206.5C 1415.57,205.311 1415.24,203.978 1415.5,202.5 Z"/></g>
<g><path style="opacity:1" fill="#ff6164" d="M 168.5,203.5 C 169.873,203.343 171.207,203.51 172.5,204C 178.665,208.25 184.998,212.25 191.5,216C 188.697,216.755 186.03,216.422 183.5,215C 178.833,212 174.167,209 169.5,206C 168.748,205.329 168.414,204.496 168.5,203.5 Z"/></g>
<g><path style="opacity:1" fill="#ff5f64" d="M 193.5,197.5 C 196.425,197.46 199.091,198.293 201.5,200C 206.5,203.5 211.5,207 216.5,210.5C 215.277,211.614 213.944,211.781 212.5,211C 205.681,206.947 199.348,202.447 193.5,197.5 Z"/></g>
<g><path style="opacity:1" fill="#ff6466" d="M 828.5,202.5 C 835.996,206.415 842.996,211.082 849.5,216.5C 848.277,217.614 846.944,217.781 845.5,217C 840.031,213.697 834.698,210.197 829.5,206.5C 828.571,205.311 828.238,203.978 828.5,202.5 Z"/></g>
<g><path style="opacity:1" fill="#ff5f65" d="M 829.5,195.5 C 835.999,199.811 842.665,203.978 849.5,208C 850.731,209.183 850.731,210.349 849.5,211.5C 843.366,207.864 837.366,204.031 831.5,200C 829.963,198.89 829.297,197.39 829.5,195.5 Z"/></g>
<g><path style="opacity:1" fill="#ff6869" d="M 1260.5,202.5 C 1268.12,206.646 1275.45,211.312 1282.5,216.5C 1280.93,217.631 1279.26,217.798 1277.5,217C 1272.34,213.251 1267,209.751 1261.5,206.5C 1260.57,205.311 1260.24,203.978 1260.5,202.5 Z"/></g>
<g><path style="opacity:1" fill="#ff666a" d="M 1581.5,202.5 C 1589,206.415 1596,211.082 1602.5,216.5C 1601.28,217.614 1599.94,217.781 1598.5,217C 1593.03,213.697 1587.7,210.197 1582.5,206.5C 1581.57,205.311 1581.24,203.978 1581.5,202.5 Z"/></g>
<g><path style="opacity:1" fill="#ff686a" d="M 110.5,204.5 C 118.501,207.143 125.834,211.143 132.5,216.5C 130.926,217.631 129.259,217.798 127.5,217C 121.342,213.279 115.676,209.113 110.5,204.5 Z"/></g>
<g><path style="opacity:1" fill="#ff686b" d="M 122.5,204.5 C 124.199,204.34 125.866,204.506 127.5,205C 133.167,208.833 138.833,212.667 144.5,216.5C 142.926,217.631 141.259,217.798 139.5,217C 133.328,213.3 127.661,209.133 122.5,204.5 Z"/></g>
<g><path style="opacity:1" fill="#ff6567" d="M 134.5,204.5 C 142.167,207.172 149.167,211.172 155.5,216.5C 153.45,217.663 151.45,217.496 149.5,216C 144.833,213 140.167,210 135.5,207C 134.748,206.329 134.414,205.496 134.5,204.5 Z"/></g>
<g><path style="opacity:1" fill="#ff6768" d="M 145.5,204.5 C 147.199,204.34 148.866,204.506 150.5,205C 156.167,208.833 161.833,212.667 167.5,216.5C 165.926,217.631 164.259,217.798 162.5,217C 156.342,213.279 150.676,209.113 145.5,204.5 Z"/></g>
<g><path style="opacity:1" fill="#ff5e62" d="M 389.5,199.5 C 390.873,199.343 392.207,199.51 393.5,200C 399.717,204.268 405.717,208.768 411.5,213.5C 409.813,214.568 408.146,214.401 406.5,213C 401.672,209.419 396.672,206.085 391.5,203C 390.177,202.184 389.511,201.017 389.5,199.5 Z"/></g>
<g><path style="opacity:1" fill="#ff686b" d="M 687.5,204.5 C 689.199,204.34 690.866,204.506 692.5,205C 698.167,208.833 703.833,212.667 709.5,216.5C 707.926,217.631 706.259,217.798 704.5,217C 700.102,213.606 695.435,210.606 690.5,208C 688.937,207.241 687.937,206.074 687.5,204.5 Z"/></g>
<g><path style="opacity:1" fill="#ff6669" d="M 699.5,204.5 C 701.199,204.34 702.866,204.506 704.5,205C 709.694,209.027 715.027,212.86 720.5,216.5C 718.45,217.663 716.45,217.496 714.5,216C 709.002,212.611 704.002,208.777 699.5,204.5 Z"/></g>
<g><path style="opacity:1" fill="#ff6667" d="M 722.5,204.5 C 725.425,204.46 728.091,205.293 730.5,207C 735.03,210.362 739.697,213.529 744.5,216.5C 742.926,217.631 741.259,217.798 739.5,217C 735.102,213.606 730.435,210.606 725.5,208C 723.937,207.241 722.937,206.074 722.5,204.5 Z"/></g>
<g><path style="opacity:1" fill="#ff686a" d="M 734.5,204.5 C 736.655,204.372 738.655,204.872 740.5,206C 745.662,209.749 750.996,213.249 756.5,216.5C 754.102,217.724 751.769,217.558 749.5,216C 744.002,212.611 739.002,208.777 734.5,204.5 Z"/></g>
<g><path style="opacity:1" fill="#ff6267" d="M 741.5,199.5 C 747.999,203.811 754.665,207.978 761.5,212C 762.337,213.011 762.67,214.178 762.5,215.5C 755.934,212.21 749.601,208.376 743.5,204C 741.963,202.89 741.297,201.39 741.5,199.5 Z"/></g>
<g><path style="opacity:1" fill="#ff6869" d="M 781.5,204.5 C 789.501,207.143 796.834,211.143 803.5,216.5C 801.926,217.631 800.259,217.798 798.5,217C 792.342,213.279 786.676,209.113 781.5,204.5 Z"/></g>
<g><path style="opacity:1" fill="#ff6669" d="M 793.5,204.5 C 795.655,204.372 797.655,204.872 799.5,206C 804.969,209.303 810.302,212.803 815.5,216.5C 813.926,217.631 812.259,217.798 810.5,217C 804.328,213.3 798.661,209.133 793.5,204.5 Z"/></g>
<g><path style="opacity:1" fill="#ff6769" d="M 805.5,204.5 C 813.167,207.172 820.167,211.172 826.5,216.5C 824.926,217.631 823.259,217.798 821.5,217C 816.772,213.274 811.772,209.941 806.5,207C 805.748,206.329 805.414,205.496 805.5,204.5 Z"/></g>
<g><path style="opacity:1" fill="#ff6869" d="M 816.5,204.5 C 818.199,204.34 819.866,204.506 821.5,205C 827.167,208.833 832.833,212.667 838.5,216.5C 836.926,217.631 835.259,217.798 833.5,217C 827.342,213.279 821.676,209.113 816.5,204.5 Z"/></g>
<g><path style="opacity:1" fill="#ff696a" d="M 886.5,204.5 C 888.199,204.34 889.866,204.506 891.5,205C 897.303,208.638 902.97,212.471 908.5,216.5C 906.926,217.631 905.259,217.798 903.5,217C 897.342,213.279 891.676,209.113 886.5,204.5 Z"/></g>
<g><path style="opacity:1" fill="#ff6669" d="M 898.5,204.5 C 900.199,204.34 901.866,204.506 903.5,205C 909.167,208.833 914.833,212.667 920.5,216.5C 918.926,217.631 917.259,217.798 915.5,217C 911.102,213.606 906.435,210.606 901.5,208C 899.937,207.241 898.937,206.074 898.5,204.5 Z"/></g>
<g><path style="opacity:1" fill="#ff676b" d="M 910.5,204.5 C 912.199,204.34 913.866,204.506 915.5,205C 921.048,208.6 926.381,212.434 931.5,216.5C 929.45,217.663 927.45,217.496 925.5,216C 921.102,212.606 916.435,209.606 911.5,207C 910.748,206.329 910.414,205.496 910.5,204.5 Z"/></g>
<g><path style="opacity:1" fill="#ff686a" d="M 921.5,204.5 C 923.199,204.34 924.866,204.506 926.5,205C 932.167,208.833 937.833,212.667 943.5,216.5C 941.45,217.663 939.45,217.496 937.5,216C 931.665,212.634 926.331,208.801 921.5,204.5 Z"/></g>
<g><path style="opacity:1" fill="#ff6668" d="M 1055.5,204.5 C 1057.2,204.34 1058.87,204.506 1060.5,205C 1065.69,209.027 1071.03,212.86 1076.5,216.5C 1074.45,217.663 1072.45,217.496 1070.5,216C 1065,212.611 1060,208.777 1055.5,204.5 Z"/></g>
<g><path style="opacity:1" fill="#ff6a6b" d="M 1066.5,204.5 C 1074.6,206.886 1081.93,210.886 1088.5,216.5C 1086.93,217.631 1085.26,217.798 1083.5,217C 1077.34,213.279 1071.68,209.113 1066.5,204.5 Z"/></g>
<g><path style="opacity:1" fill="#ff6669" d="M 1078.5,204.5 C 1080.2,204.34 1081.87,204.506 1083.5,205C 1089.17,208.833 1094.83,212.667 1100.5,216.5C 1098.93,217.631 1097.26,217.798 1095.5,217C 1089.34,213.279 1083.68,209.113 1078.5,204.5 Z"/></g>
<g><path style="opacity:1" fill="#ff6264" d="M 1103.5,204.5 C 1110.89,207.209 1117.56,211.209 1123.5,216.5C 1121.93,217.631 1120.26,217.798 1118.5,217C 1113.77,213.274 1108.77,209.941 1103.5,207C 1102.4,206.23 1102.4,205.397 1103.5,204.5 Z"/></g>
<g><path style="opacity:1" fill="#ff6063" d="M 1104.5,196.5 C 1111.28,200.395 1117.95,204.561 1124.5,209C 1125.73,210.183 1125.73,211.349 1124.5,212.5C 1118.37,208.864 1112.37,205.031 1106.5,201C 1104.96,199.89 1104.3,198.39 1104.5,196.5 Z"/></g>
<g><path style="opacity:1" fill="#ff686b" d="M 1160.5,204.5 C 1162.2,204.34 1163.87,204.506 1165.5,205C 1171.17,208.833 1176.83,212.667 1182.5,216.5C 1180.93,217.631 1179.26,217.798 1177.5,217C 1173.1,213.606 1168.44,210.606 1163.5,208C 1161.94,207.241 1160.94,206.074 1160.5,204.5 Z"/></g>
<g><path style="opacity:1" fill="#ff696a" d="M 1172.5,204.5 C 1173.87,204.343 1175.21,204.51 1176.5,205C 1182.37,209.039 1188.37,212.873 1194.5,216.5C 1192.1,217.724 1189.77,217.558 1187.5,216C 1184,213.417 1180.34,211.084 1176.5,209C 1174.81,207.693 1173.47,206.193 1172.5,204.5 Z"/></g>
<g><path style="opacity:1" fill="#ff676a" d="M 1225.5,204.5 C 1227.2,204.34 1228.87,204.506 1230.5,205C 1236.17,208.833 1241.83,212.667 1247.5,216.5C 1245.93,217.631 1244.26,217.798 1242.5,217C 1236.34,213.279 1230.68,209.113 1225.5,204.5 Z"/></g>
<g><path style="opacity:1" fill="#ff6667" d="M 1237.5,204.5 C 1239.65,204.372 1241.65,204.872 1243.5,206C 1248.89,209.02 1253.89,212.52 1258.5,216.5C 1257.28,217.614 1255.94,217.781 1254.5,217C 1248.33,213.3 1242.66,209.133 1237.5,204.5 Z"/></g>
<g><path style="opacity:1" fill="#ff6568" d="M 1249.5,204.5 C 1257.17,207.172 1264.17,211.172 1270.5,216.5C 1268.45,217.663 1266.45,217.496 1264.5,216C 1260.1,212.606 1255.44,209.606 1250.5,207C 1249.75,206.329 1249.41,205.496 1249.5,204.5 Z"/></g>
<g><path style="opacity:1" fill="#ff6568" d="M 1319.5,204.5 C 1327.17,207.172 1334.17,211.172 1340.5,216.5C 1338.45,217.663 1336.45,217.496 1334.5,216C 1330.1,212.606 1325.44,209.606 1320.5,207C 1319.75,206.329 1319.41,205.496 1319.5,204.5 Z"/></g>
<g><path style="opacity:1" fill="#ff686a" d="M 1330.5,204.5 C 1332.2,204.34 1333.87,204.506 1335.5,205C 1341.17,208.833 1346.83,212.667 1352.5,216.5C 1350.93,217.631 1349.26,217.798 1347.5,217C 1341.34,213.279 1335.68,209.113 1330.5,204.5 Z"/></g>
<g><path style="opacity:1" fill="#ff676a" d="M 1342.5,204.5 C 1344.2,204.34 1345.87,204.506 1347.5,205C 1353.17,208.833 1358.83,212.667 1364.5,216.5C 1362.93,217.631 1361.26,217.798 1359.5,217C 1355.1,213.606 1350.44,210.606 1345.5,208C 1343.94,207.241 1342.94,206.074 1342.5,204.5 Z"/></g>
<g><path style="opacity:1" fill="#ff6164" d="M 1354.5,206.5 C 1356.29,205.378 1358.29,205.211 1360.5,206C 1365.5,209.5 1370.5,213 1375.5,216.5C 1374.28,217.614 1372.94,217.781 1371.5,217C 1365.93,213.248 1360.26,209.748 1354.5,206.5 Z"/></g>
<g><path style="opacity:1" fill="#ff6c6d" d="M 1424.5,204.5 C 1427.74,203.758 1430.9,204.424 1434,206.5C 1434.48,207.448 1434.65,208.448 1434.5,209.5C 1430.93,208.379 1427.59,206.713 1424.5,204.5 Z"/></g>
<g><path style="opacity:1" fill="#ff6365" d="M 1462.5,204.5 C 1464.65,204.372 1466.65,204.872 1468.5,206C 1474.28,209.284 1479.61,213.117 1484.5,217.5C 1482.81,218.568 1481.15,218.401 1479.5,217C 1475.1,213.606 1470.44,210.606 1465.5,208C 1463.94,207.241 1462.94,206.074 1462.5,204.5 Z"/></g>
<g><path style="opacity:1" fill="#ff6668" d="M 1534.5,204.5 C 1537.42,204.46 1540.09,205.293 1542.5,207C 1547.03,210.362 1551.7,213.529 1556.5,216.5C 1554.93,217.631 1553.26,217.798 1551.5,217C 1545.33,213.3 1539.66,209.133 1534.5,204.5 Z"/></g>
<g><path style="opacity:1" fill="#ff696a" d="M 1546.5,204.5 C 1548.65,204.372 1550.65,204.872 1552.5,206C 1557.67,209.752 1563.01,213.252 1568.5,216.5C 1566.58,217.641 1564.58,217.808 1562.5,217C 1557.77,213.274 1552.77,209.941 1547.5,207C 1546.75,206.329 1546.41,205.496 1546.5,204.5 Z"/></g>
<g><path style="opacity:1" fill="#ff6668" d="M 1558.5,204.5 C 1566.17,207.172 1573.17,211.172 1579.5,216.5C 1577.93,217.631 1576.26,217.798 1574.5,217C 1569.67,213.419 1564.67,210.085 1559.5,207C 1558.75,206.329 1558.41,205.496 1558.5,204.5 Z"/></g>
<g><path style="opacity:1" fill="#ff686a" d="M 1569.5,204.5 C 1571.2,204.34 1572.87,204.506 1574.5,205C 1580.17,208.833 1585.83,212.667 1591.5,216.5C 1589.93,217.631 1588.26,217.798 1586.5,217C 1582.1,213.606 1577.44,210.606 1572.5,208C 1570.94,207.241 1569.94,206.074 1569.5,204.5 Z"/></g>
<g><path style="opacity:1" fill="#ff6669" d="M 1639.5,204.5 C 1641.2,204.34 1642.87,204.506 1644.5,205C 1650.17,208.833 1655.83,212.667 1661.5,216.5C 1659.93,217.631 1658.26,217.798 1656.5,217C 1650.34,213.279 1644.68,209.113 1639.5,204.5 Z"/></g>
<g><path style="opacity:1" fill="#ff6467" d="M 1652.5,204.5 C 1659.89,207.699 1666.89,211.699 1673.5,216.5C 1671.1,217.724 1668.77,217.558 1666.5,216C 1661.67,212.419 1656.67,209.085 1651.5,206C 1652.06,205.617 1652.39,205.117 1652.5,204.5 Z"/></g>
<g><path style="opacity:1" fill="#ff6668" d="M 1663.5,204.5 C 1671.17,207.172 1678.17,211.172 1684.5,216.5C 1682.45,217.663 1680.45,217.496 1678.5,216C 1673.83,213 1669.17,210 1664.5,207C 1663.75,206.329 1663.41,205.496 1663.5,204.5 Z"/></g>
<g><path style="opacity:1" fill="#ff6769" d="M 1674.5,204.5 C 1676.2,204.34 1677.87,204.506 1679.5,205C 1685.17,208.833 1690.83,212.667 1696.5,216.5C 1694.93,217.631 1693.26,217.798 1691.5,217C 1685.34,213.279 1679.68,209.113 1674.5,204.5 Z"/></g>
<g><path style="opacity:1" fill="#ff6668" d="M 492.5,205.5 C 494.199,205.34 495.866,205.506 497.5,206C 503.167,209.833 508.833,213.667 514.5,217.5C 512.926,218.631 511.259,218.798 509.5,218C 503.328,214.3 497.661,210.133 492.5,205.5 Z"/></g>
<g><path style="opacity:1" fill="#ff6467" d="M 504.5,205.5 C 507.425,205.46 510.091,206.293 512.5,208C 516.997,211.005 521.331,214.172 525.5,217.5C 524.277,218.614 522.944,218.781 521.5,218C 515.328,214.3 509.661,210.133 504.5,205.5 Z"/></g>
<g><path style="opacity:1" fill="#ff6869" d="M 527.5,205.5 C 529.199,205.34 530.866,205.506 532.5,206C 538.167,209.833 543.833,213.667 549.5,217.5C 547.926,218.631 546.259,218.798 544.5,218C 540.102,214.606 535.435,211.606 530.5,209C 528.937,208.241 527.937,207.074 527.5,205.5 Z"/></g>
<g><path style="opacity:1" fill="#ff676b" d="M 622.5,204.5 C 629.451,208.314 636.118,212.648 642.5,217.5C 640.926,218.631 639.259,218.798 637.5,218C 632.009,213.754 626.342,209.754 620.5,206C 621.416,205.722 622.082,205.222 622.5,204.5 Z"/></g>
<g><path style="opacity:1" fill="#ff7174" d="M 1394.5,204.5 C 1401.11,207.808 1407.44,211.642 1413.5,216C 1410.98,216.257 1408.65,215.59 1406.5,214C 1403,211.417 1399.34,209.084 1395.5,207C 1394.75,206.329 1394.41,205.496 1394.5,204.5 Z"/></g>
<g><path style="opacity:1" fill="#ff6064" d="M 1453.5,207.5 C 1454.95,206.387 1456.61,206.22 1458.5,207C 1464.37,211.039 1470.37,214.873 1476.5,218.5C 1474.93,219.631 1473.26,219.798 1471.5,219C 1465.3,215.406 1459.3,211.572 1453.5,207.5 Z"/></g>
<g><path style="opacity:1" fill="#ff6b6b" d="M 339.5,207.5 C 341.288,206.378 343.288,206.211 345.5,207C 350.362,210.695 355.362,214.195 360.5,217.5C 358.534,218.372 356.534,218.205 354.5,217C 349.444,213.812 344.444,210.645 339.5,207.5 Z"/></g>
<g><path style="opacity:1" fill="#ff6165" d="M 363.5,207.5 C 365.772,206.236 368.105,206.402 370.5,208C 375.991,212.246 381.658,216.246 387.5,220C 385.5,220.667 383.5,220.667 381.5,220C 375.344,216.003 369.344,211.836 363.5,207.5 Z"/></g>
<g><path style="opacity:1" fill="#ff6467" d="M 99.5,204.5 C 100.873,204.343 102.207,204.51 103.5,205C 109.167,208.833 114.833,212.667 120.5,216.5C 118.926,217.631 117.259,217.798 115.5,217C 110.672,213.419 105.672,210.085 100.5,207C 99.7476,206.329 99.4142,205.496 99.5,204.5 Z"/></g>
<g><path style="opacity:1" fill="#ff686b" d="M 157.5,204.5 C 159.199,204.34 160.866,204.506 162.5,205C 167.821,209.328 173.488,213.162 179.5,216.5C 177.926,217.631 176.259,217.798 174.5,217C 168.328,213.3 162.661,209.133 157.5,204.5 Z"/></g>
<g><path style="opacity:1" fill="#ff6265" d="M 374.5,204.5 C 375.552,204.351 376.552,204.517 377.5,205C 383.833,209.5 390.167,214 396.5,218.5C 394.45,219.663 392.45,219.496 390.5,218C 385.5,214.5 380.5,211 375.5,207.5C 374.614,206.675 374.281,205.675 374.5,204.5 Z"/></g>
<g><path style="opacity:1" fill="#ff6468" d="M 515.5,206.5 C 516.946,205.387 518.613,205.22 520.5,206C 526.167,209.833 531.833,213.667 537.5,217.5C 535.926,218.631 534.259,218.798 532.5,218C 527.15,213.661 521.484,209.828 515.5,206.5 Z"/></g>
<g><path style="opacity:1" fill="#ff6568" d="M 711.5,204.5 C 712.873,204.343 714.207,204.51 715.5,205C 721.167,208.833 726.833,212.667 732.5,216.5C 729.641,217.599 726.974,217.099 724.5,215C 720.5,212.333 716.5,209.667 712.5,207C 711.748,206.329 711.414,205.496 711.5,204.5 Z"/></g>
<g><path style="opacity:1" fill="#ff6667" d="M 1148.5,204.5 C 1150.2,204.34 1151.87,204.506 1153.5,205C 1159.17,208.833 1164.83,212.667 1170.5,216.5C 1167.64,217.599 1164.97,217.099 1162.5,215C 1157.52,211.702 1152.85,208.202 1148.5,204.5 Z"/></g>
<g><path style="opacity:1" fill="#ff6366" d="M 1214.5,204.5 C 1216.56,204.687 1218.56,205.187 1220.5,206C 1225.5,209.5 1230.5,213 1235.5,216.5C 1233.93,217.631 1232.26,217.798 1230.5,217C 1225.67,213.419 1220.67,210.085 1215.5,207C 1214.75,206.329 1214.41,205.496 1214.5,204.5 Z"/></g>
<g><path style="opacity:1" fill="#ff6165" d="M 1403.5,204.5 C 1405.2,204.34 1406.87,204.506 1408.5,205C 1414,208.916 1419.66,212.582 1425.5,216C 1423.5,216.667 1421.5,216.667 1419.5,216C 1413.66,212.634 1408.33,208.801 1403.5,204.5 Z"/></g>
<g><path style="opacity:1" fill="#ff6a6b" d="M 1442.5,206.5 C 1450.5,209.337 1457.83,213.504 1464.5,219C 1462.03,219.706 1459.7,219.373 1457.5,218C 1453.1,214.606 1448.44,211.606 1443.5,209C 1442.75,208.329 1442.41,207.496 1442.5,206.5 Z"/></g>
<g><path style="opacity:1" fill="#ff6165" d="M 1470.5,201.5 C 1478.73,204.95 1486.39,209.45 1493.5,215C 1491.03,215.706 1488.7,215.373 1486.5,214C 1482.1,210.606 1477.44,207.606 1472.5,205C 1471.18,204.184 1470.51,203.017 1470.5,201.5 Z"/></g>
<g><path style="opacity:1" fill="#ff676a" d="M 1090.5,204.5 C 1092.65,204.372 1094.65,204.872 1096.5,206C 1101.66,209.749 1107,213.249 1112.5,216.5C 1110.1,217.724 1107.77,217.558 1105.5,216C 1100,212.611 1095,208.777 1090.5,204.5 Z"/></g>
<g><path style="opacity:1" fill="#ff6366" d="M 353.5,208.5 C 354.946,207.387 356.613,207.22 358.5,208C 363.991,212.246 369.658,216.246 375.5,220C 373.029,220.706 370.695,220.373 368.5,219C 363.471,215.49 358.471,211.99 353.5,208.5 Z"/></g>
<g><path style="opacity:1" fill="#ff6468" d="M 481.5,206.5 C 483.435,205.291 485.435,205.458 487.5,207C 492.5,210.5 497.5,214 502.5,217.5C 501.277,218.614 499.944,218.781 498.5,218C 493.15,213.661 487.484,209.828 481.5,206.5 Z"/></g>
<g><path style="opacity:1" fill="#ff6669" d="M 608.5,206.5 C 609.946,205.387 611.613,205.22 613.5,206C 619.55,209.351 625.216,213.185 630.5,217.5C 629.277,218.614 627.944,218.781 626.5,218C 620.641,213.906 614.641,210.073 608.5,206.5 Z"/></g>
</svg>
